<svg width="16" height="16" viewBox="0 0 16 16" fill="none" xmlns="http://www.w3.org/2000/svg">
<path fill-rule="evenodd" clip-rule="evenodd" d="M7.47882 9.37853L6.9801 9.58003C6.60006 9.73386 6.16642 9.55428 6.00668 9.17667L5.79648 8.68144C5.76028 8.59652 5.69242 8.52901 5.60785 8.49281L5.11261 8.28261C4.73466 8.12251 4.55543 7.68923 4.70925 7.30919L4.91076 6.81047C4.94521 6.72485 4.94521 6.6288 4.91076 6.54319L4.70925 6.04447C4.55543 5.66443 4.73466 5.23114 5.11261 5.07105L5.60785 4.86084C5.69242 4.82465 5.76028 4.75679 5.79648 4.67222L6.00668 4.17698C6.16642 3.79903 6.60006 3.6198 6.9801 3.77362L7.47882 3.97513C7.56443 4.00958 7.66014 4.00958 7.7461 3.97513L8.24482 3.77362C8.62486 3.6198 9.05815 3.79903 9.21824 4.17698L9.42844 4.67222C9.46464 4.75679 9.53215 4.82465 9.61707 4.86084L10.1123 5.07105C10.4899 5.23114 10.6691 5.66443 10.5157 6.04447L10.3142 6.54319C10.2794 6.6288 10.2794 6.72485 10.3142 6.81047L10.5157 7.30919C10.6691 7.68923 10.4899 8.12251 10.1123 8.28261L9.61707 8.49281C9.53215 8.52901 9.46464 8.59652 9.42844 8.68144L9.21824 9.17667C9.05815 9.55428 8.62486 9.73386 8.24482 9.58003L7.7461 9.37853C7.66014 9.34373 7.56443 9.34373 7.47882 9.37853ZM7.89399 9.01169L8.3927 9.21319C8.57298 9.28593 8.77796 9.20101 8.85418 9.02213L9.06439 8.52689C9.14025 8.34766 9.28329 8.20462 9.46218 8.12875L9.95776 7.91855C10.1366 7.84233 10.2216 7.63735 10.1488 7.45707L9.94732 6.95835C9.87424 6.77773 9.87424 6.57588 9.94732 6.39525L10.1488 5.89654C10.2216 5.71626 10.1366 5.51093 9.95776 5.43506L9.46218 5.22485C9.28329 5.14898 9.14025 5.00629 9.06439 4.82671L8.85418 4.33148C8.77796 4.15225 8.57298 4.06733 8.3927 4.14041L7.89399 4.34192C7.71336 4.41465 7.51116 4.41465 7.33088 4.34192L6.83217 4.14041C6.65189 4.06733 6.44656 4.15225 6.37069 4.33148L6.16048 4.82671C6.08461 5.00629 5.94158 5.14898 5.76235 5.22485L5.26711 5.43506C5.08788 5.51093 5.00296 5.71626 5.07604 5.89654L5.27755 6.39525C5.35029 6.57553 5.35029 6.77773 5.27755 6.95835L5.07604 7.45707C5.00296 7.63735 5.08788 7.84233 5.26711 7.91855L5.76235 8.12875C5.94158 8.20462 6.08461 8.34766 6.16048 8.52689L6.37069 9.02213C6.44656 9.20101 6.65189 9.28593 6.83217 9.21319L7.33088 9.01169C7.51116 8.9386 7.71336 8.9386 7.89399 9.01169ZM7.23237 7.17164L8.63107 5.77259C8.72364 5.68002 8.87399 5.68002 8.96656 5.77259C9.05949 5.86551 9.05949 6.01551 8.96656 6.10843L7.40011 7.67488C7.30719 7.76781 7.15719 7.76781 7.06462 7.67488L6.33725 6.94787C6.24468 6.85494 6.24468 6.70495 6.33725 6.61202C6.42983 6.51945 6.58017 6.51945 6.67275 6.61202L7.23237 7.17164ZM11.3763 12.0635C11.3763 12.1843 11.2789 12.2807 11.1588 12.2807H4.06576C3.94604 12.2807 3.8486 12.1843 3.8486 12.0635C3.8486 11.9427 3.94604 11.8463 4.06576 11.8463H11.1588C11.2792 11.8463 11.3763 11.9427 11.3763 12.0635ZM4.06576 10.7602H11.1588C11.2789 10.7602 11.3763 10.8577 11.3763 10.9777C11.3763 11.0981 11.2789 11.1952 11.1588 11.1952H4.06576C3.94604 11.1952 3.8486 11.0981 3.8486 10.9777C3.8486 10.8577 3.94604 10.7602 4.06576 10.7602ZM13.7898 15.2493C13.7898 15.4233 13.6489 15.5653 13.4742 15.5653H1.75102C1.57631 15.5653 1.43467 15.4233 1.43467 15.2493V0.750337C1.43467 0.576673 1.57631 0.43468 1.75102 0.43468H4.18857V1.19824H2.50379C2.38373 1.19824 2.28628 1.29569 2.28628 1.41645V14.4391C2.28628 14.5599 2.38373 14.6566 2.50379 14.6566H12.7214C12.8415 14.6566 12.9386 14.5599 12.9386 14.4391V1.41645C12.9386 1.29569 12.8415 1.19824 12.7214 1.19824H11.037V0.43468H13.4742C13.6489 0.43468 13.7898 0.576673 13.7898 0.750337V15.2493ZM4.6233 1.19824H10.6016V0.43468H4.6233V1.19824ZM10.602 1.91728C10.602 2.21866 10.3566 2.46402 10.0552 2.46402H5.16969C4.86865 2.46402 4.6233 2.21866 4.6233 1.91728V1.63329H10.602V1.91728ZM5.16967 2.8987H10.0556C10.5967 2.8987 11.037 2.45915 11.037 1.91728V1.63329H12.5039V14.2213H2.72098V1.63329H4.18859V1.91728C4.18859 2.45915 4.62884 2.8987 5.16967 2.8987ZM13.4742 0H1.75103C1.33689 0 1 0.336886 1 0.750337V15.2493C1 15.6631 1.33689 16 1.75103 16H13.4742C13.8883 16 14.2249 15.6631 14.2249 15.2493V0.750337C14.2249 0.336886 13.8883 0 13.4742 0Z" fill="#003876"/>
</svg>
