<svg width="32" height="32" viewBox="0 0 32 32" fill="none" xmlns="http://www.w3.org/2000/svg">
<g id="Icons / Grid">
<path id="Vector" d="M18.6667 13.3333V18.6667H13.3333V13.3333H18.6667ZM21.3333 13.3333H28V18.6667H21.3333V13.3333ZM18.6667 28H13.3333V21.3333H18.6667V28ZM21.3333 28V21.3333H28V26.6667C28 27.4031 27.4031 28 26.6667 28H21.3333ZM18.6667 4V10.6667H13.3333V4H18.6667ZM21.3333 4H26.6667C27.4031 4 28 4.59696 28 5.33333V10.6667H21.3333V4ZM10.6667 13.3333V18.6667H4V13.3333H10.6667ZM10.6667 28H5.33333C4.59696 28 4 27.4031 4 26.6667V21.3333H10.6667V28ZM10.6667 4V10.6667H4V5.33333C4 4.59696 4.59696 4 5.33333 4H10.6667Z" fill="white"/>
</g>
</svg>
