<svg width="16" height="16" viewBox="0 0 16 16" fill="none" xmlns="http://www.w3.org/2000/svg">
<path fill-rule="evenodd" clip-rule="evenodd" d="M2.90888 12.5124H10.6191V8.56166H2.90888V12.5124ZM6.77913 7.64845C6.9069 7.64845 7.02623 7.61012 7.12745 7.54488L9.42943 8.18518H4.0987L6.42164 7.53892C6.52385 7.60801 6.64703 7.64845 6.77913 7.64845ZM6.77915 5.39561C6.91076 5.39561 7.01619 5.50067 7.01433 5.6308C7.01433 5.76054 6.9089 5.8661 6.77915 5.8661C6.64928 5.8661 6.54384 5.76054 6.54384 5.6308C6.54384 5.50105 6.64928 5.39561 6.77915 5.39561ZM10.9827 8.30972C10.9811 8.30525 10.9801 8.30066 10.9782 8.29644C10.9702 8.27883 10.9592 8.26357 10.9462 8.24906C10.9429 8.24534 10.9403 8.24137 10.9368 8.23802C10.9239 8.22562 10.9088 8.21644 10.8925 8.208C10.8863 8.2049 10.8808 8.2013 10.8743 8.1987C10.8691 8.19671 10.8651 8.19262 10.8596 8.19113L7.37838 7.22186C7.40084 7.13044 7.35717 7.03518 7.26873 7.00057C7.17061 6.96311 7.06146 7.01012 7.02399 7.10626C7.02164 7.11184 7.01544 7.11457 7.01271 7.12015L6.81622 7.06532C6.78236 7.05577 6.74862 7.05577 6.71476 7.06532L6.53886 7.11444C6.52423 7.0817 6.51554 7.04622 6.51554 7.00839C6.51554 6.86351 6.63425 6.7448 6.77913 6.7448C6.88197 6.7448 6.96557 6.66132 6.96694 6.55873L6.96731 6.20645C7.18711 6.13438 7.3444 5.94559 7.37516 5.71165L7.86885 4.87783C7.92169 4.78778 7.89341 4.67267 7.80298 4.6202C7.71293 4.56723 7.59794 4.59539 7.54535 4.68594L7.2273 5.22428C7.11517 5.10123 6.95776 5.02085 6.77913 5.02085C6.60138 5.02085 6.44447 5.10024 6.33246 5.22193L6.01478 4.68408C5.96219 4.59588 5.84745 4.56574 5.75702 4.61834C5.66883 4.67093 5.63869 4.78567 5.69128 4.87597L6.18311 5.71053C6.21449 5.9446 6.37203 6.13376 6.59084 6.2062V6.39971C6.32961 6.48096 6.13895 6.7221 6.13895 7.00839C6.13895 7.0812 6.15384 7.15004 6.17641 7.21529L2.67134 8.19113C2.66638 8.1925 2.66291 8.19609 2.65819 8.19771C2.6474 8.20168 2.6381 8.20738 2.6283 8.21296C2.61664 8.21966 2.60548 8.22611 2.59568 8.23492C2.58774 8.24211 2.58191 8.25042 2.57521 8.25898C2.5669 8.2694 2.55896 8.27957 2.55313 8.29161C2.54829 8.30153 2.54581 8.31207 2.54271 8.32299C2.53924 8.33539 2.53589 8.3473 2.53502 8.36045C2.53477 8.36491 2.53242 8.36876 2.53242 8.37335V12.7006C2.53242 12.8043 2.61701 12.8889 2.72071 12.8889H10.8074C10.9107 12.8889 10.9956 12.8041 10.9956 12.7008V8.37335C10.9956 8.37161 10.9946 8.37 10.9946 8.36814C10.994 8.34755 10.9896 8.32857 10.9827 8.30972ZM9.58198 11.7069V9.36537C9.58198 9.26179 9.66645 9.1772 9.77015 9.1772C9.87385 9.1772 9.95845 9.26179 9.95845 9.36537V11.7069C9.95845 11.8106 9.87348 11.8952 9.77015 11.8952C9.66645 11.8952 9.58198 11.8106 9.58198 11.7069ZM8.37903 11.7069V9.36537C8.37903 9.26179 8.46362 9.1772 8.56732 9.1772C8.6709 9.1772 8.7555 9.26179 8.7555 9.36537V11.7069C8.7555 11.8106 8.6709 11.8952 8.56732 11.8952C8.46362 11.8952 8.37903 11.8106 8.37903 11.7069ZM7.1762 11.7069V9.36537C7.1762 9.26179 7.26067 9.1772 7.36437 9.1772C7.46807 9.1772 7.55267 9.26179 7.55267 9.36537V11.7069C7.55267 11.8106 7.46993 11.8952 7.36437 11.8952C7.26067 11.8952 7.1762 11.8106 7.1762 11.7069ZM5.97546 11.7069V9.36537C5.97546 9.26179 6.05994 9.1772 6.16363 9.1772C6.26733 9.1772 6.35193 9.26179 6.35193 9.36537V11.7069C6.35193 11.8106 6.26696 11.8952 6.16363 11.8952C6.05994 11.8952 5.97546 11.8106 5.97546 11.7069ZM4.77252 11.7069V9.36537C4.77252 9.26179 4.85711 9.1772 4.96081 9.1772C5.06451 9.1772 5.14898 9.26179 5.14898 9.36537V11.7069C5.14898 11.8106 5.06439 11.8952 4.96081 11.8952C4.85711 11.8952 4.77252 11.8106 4.77252 11.7069ZM3.56952 11.7069V9.36537C3.56952 9.26179 3.65412 9.1772 3.75782 9.1772C3.86152 9.1772 3.94612 9.26179 3.94612 9.36537V11.7069C3.94612 11.8106 3.86152 11.8952 3.75782 11.8952C3.65412 11.8952 3.56952 11.8106 3.56952 11.7069ZM10.7881 2.80386L11.0481 2.54387L11.6986 3.1941L13.3891 1.50328L13.649 1.76339L11.6986 3.71409L10.7881 2.80386ZM12.2185 0.36792C13.4583 0.36792 14.4596 1.36919 14.4596 2.60875C14.4596 3.84843 13.4583 4.84958 12.2185 4.84958C10.9787 4.84958 9.97783 3.84843 9.97783 2.60875C9.97783 1.36919 10.9787 0.36792 12.2185 0.36792ZM12.2185 0C10.7799 0 9.60991 1.17034 9.60991 2.60874C9.60991 4.04751 10.7799 5.21723 12.2185 5.21723C13.6568 5.21723 14.8274 4.04751 14.8274 2.60874C14.8274 1.16997 13.6569 0 12.2185 0ZM2.42524 13.9981H6.70123V13.6302H2.42524V13.9981ZM2.78918 2.7938H4.62849V5.60312L3.70896 4.68632L2.78918 5.60312V2.7938ZM1 2.42578V16H12.4022V5.76042H12.0342V15.632H1.36779V2.79381H2.42128V6.48966C2.85059 6.06159 3.27953 5.63352 3.70872 5.20545C4.13778 5.63352 4.56709 6.06159 4.9964 6.48966V2.79381H9.06773V2.42578H1Z" fill="#003876"/>
</svg>
