<svg width="16" height="16" viewBox="0 0 16 16"  xmlns="http://www.w3.org/2000/svg">
<path fill-rule="evenodd" clip-rule="evenodd" d="M13.2913 14.1282H3.73226C3.10063 14.1282 2.58618 13.6143 2.58618 12.9821V3.27428L2.75844 3.07916C2.77192 3.05689 2.78715 3.0358 2.8059 3.01588L2.92075 2.89517L4.73305 0.988525C4.77699 0.942236 4.83089 0.911182 4.88773 0.892432V0.871924L13.2907 0.871338C13.9229 0.871338 14.4374 1.38579 14.4374 2.01801L14.438 12.9815C14.438 13.6137 13.9235 14.1282 13.2913 14.1282ZM4.9516 3.00476V1.84694L3.47504 3.40143H4.55492C4.77347 3.40143 4.9516 3.22331 4.9516 3.00476ZM4.55485 4.15139H3.3361L3.3355 12.9815C3.3355 13.2 3.51362 13.3782 3.73217 13.3782L13.2912 13.3788C13.5098 13.3788 13.6879 13.2006 13.6879 12.9821V2.01798C13.6879 1.79943 13.5098 1.62131 13.2912 1.62131L5.70152 1.62189V3.00471C5.70152 3.63693 5.18707 4.15139 4.55485 4.15139ZM5.35929 7.21876L5.59836 7.39981L5.8925 7.01192L6.58625 6.0961L7.038 6.56777L7.60226 7.15723L8.97863 5.81543L9.81945 4.99571L10.0966 5.38184L10.8988 6.49981L12.1954 4.84456L11.7232 4.47424L11.412 4.8715L10.9199 5.50021L10.6744 5.15802L9.89975 4.07932L7.6169 6.30532L6.53291 5.1727L5.12021 7.0378L5.35929 7.21876ZM5.9986 8.79075V9.09075H11.3206V8.49075H5.9986V8.79075ZM5.9986 10.1613V10.4619H11.3206V9.86188H5.9986V10.1613ZM6.45624 11.8331V11.5331V11.2331H7.16523V11.8331H6.45624ZM8.30484 11.5331V11.8331H9.01383V11.2331H8.30484V11.5331ZM10.8624 11.8331H10.1534V11.2331H10.8624V11.8331Z" fill="#003775"/>
</svg>
