<svg width="32" height="32" viewBox="0 0 32 32" fill="none" xmlns="http://www.w3.org/2000/svg">
<path fill-rule="evenodd" clip-rule="evenodd" d="M14.8988 2.05153C7.80866 2.05153 2.06093 7.77305 2.06093 14.8309C2.06093 21.8887 7.80866 27.6102 14.8988 27.6102C21.989 27.6102 27.7367 21.8887 27.7367 14.8309C27.7367 7.77305 21.989 2.05153 14.8988 2.05153ZM0 14.8309C0 6.64001 6.67044 0 14.8988 0C23.1272 0 29.7977 6.64001 29.7977 14.8309C29.7977 18.5796 28.4005 22.0034 26.0962 24.6146L31.7019 30.253C32.1023 30.6556 32.0989 31.3051 31.6943 31.7036C31.2898 32.1021 30.6374 32.0987 30.2371 31.696L24.6329 26.0591C22.0219 28.304 18.6197 29.6618 14.8988 29.6618C6.67044 29.6618 0 23.0218 0 14.8309ZM13.8254 5.47108C13.8254 4.90456 14.2867 4.44531 14.8558 4.44531C16.2316 4.44531 17.5939 4.71506 18.865 5.23915C20.136 5.76323 21.2909 6.5314 22.2638 7.49979C23.2366 8.46818 24.0083 9.61782 24.5348 10.8831C25.0613 12.1483 25.3322 13.5044 25.3322 14.8739C25.3322 15.4405 24.8709 15.8997 24.3018 15.8997C23.7327 15.8997 23.2713 15.4405 23.2713 14.8739C23.2713 13.7739 23.0536 12.6845 22.6307 11.6682C22.2078 10.6518 21.5879 9.72833 20.8065 8.95044C20.025 8.17256 19.0973 7.55551 18.0763 7.13452C17.0553 6.71353 15.961 6.49685 14.8558 6.49685C14.2867 6.49685 13.8254 6.0376 13.8254 5.47108Z" fill="#058ED9"/>
</svg>
