<svg width="31" height="32" viewBox="0 0 31 32" fill="none" xmlns="http://www.w3.org/2000/svg">
<path fill-rule="evenodd" clip-rule="evenodd" d="M16.563 0.838225C16.1298 -0.279413 14.5484 -0.279405 14.1153 0.838227L12.1837 5.82178C12.1571 5.89043 12.0928 5.93715 12.0193 5.94124L11.9291 5.94626C11.7296 5.57696 11.3545 5.29253 10.8503 5.26448L8.34212 5.1249C8.26861 5.12081 8.2043 5.07408 8.1777 5.00544L7.26987 2.66311C6.8367 1.54548 5.25532 1.54548 4.82215 2.66311L3.91432 5.00544C3.88771 5.07408 3.8234 5.12081 3.7499 5.1249L1.24168 5.26448C0.044884 5.33108 -0.443785 6.83506 0.485291 7.5924L2.43244 9.17961C2.4895 9.22613 2.51407 9.30173 2.49524 9.3729L1.85291 11.8015C1.54642 12.9603 2.82579 13.8898 3.83316 13.2402L5.94439 11.8789C6.00626 11.839 6.08575 11.839 6.14762 11.8789L8.25886 13.2402C8.82347 13.6043 9.47352 13.4723 9.88191 13.082L8.76609 17.3007C8.32357 16.5447 7.50294 16.037 6.56372 16.037H4.76363C3.35523 16.037 2.2135 17.1787 2.2135 18.5871V28.8626C2.2135 30.271 3.35523 31.4128 4.76363 31.4128H6.56372C7.42099 31.4128 8.17946 30.9898 8.64179 30.3411C8.70081 30.4962 8.78158 30.6455 8.88683 30.7866C9.14531 31.1329 9.52025 31.3881 9.98058 31.5713C10.8805 31.9295 12.2229 32.0582 14.0747 31.9755H23.1021C24.6762 31.9755 25.9522 30.6994 25.9522 29.1253C25.9522 28.5706 25.7937 28.0531 25.5198 27.6155C26.7592 27.3061 27.6773 26.1853 27.6773 24.8501C27.6773 24.3349 27.5404 23.8515 27.3014 23.4345C28.3425 23.0113 29.0765 21.9896 29.0765 20.7964C29.0765 19.8582 28.6227 19.0267 27.9236 18.5084C28.2084 18.0651 28.374 17.5374 28.374 16.9713C28.374 15.3991 27.0995 14.1246 25.5273 14.1246H21.0721L20.8844 13.415C21.2102 13.4973 21.5737 13.4554 21.9074 13.2402L24.0186 11.8789C24.0805 11.839 24.16 11.839 24.2218 11.8789L26.3331 13.2402C27.3404 13.8898 28.6198 12.9603 28.3133 11.8015L27.671 9.3729C27.6522 9.30173 27.6767 9.22613 27.7338 9.17961L29.6809 7.5924C30.61 6.83506 30.1213 5.33108 28.9246 5.26448L26.4163 5.1249C26.3428 5.12081 26.2785 5.07408 26.2519 5.00544L25.3441 2.66311C24.9109 1.54547 23.3295 1.54548 22.8964 2.66311L21.9885 5.00544C21.9619 5.07408 21.8976 5.12081 21.8241 5.1249L19.3159 5.26448C18.9478 5.28496 18.6481 5.4425 18.4356 5.66988L16.563 0.838225ZM19.9083 14.1246L19.4586 12.4241C19.3268 11.9259 19.4987 11.3967 19.8982 11.0711L24.041 7.69409C24.0981 7.64752 24.1177 7.58119 24.1079 7.51998C24.0868 7.44958 24.0259 7.39119 23.9386 7.38633L18.0384 7.05799L18.0487 6.91064C17.7779 6.76525 17.5609 6.5263 17.4455 6.22836L15.5139 1.2448C15.4521 1.08514 15.2262 1.08514 15.1643 1.2448L13.2328 6.22836C13.0496 6.70099 12.611 7.02517 12.1071 7.06291L12.1079 7.08832L6.75268 7.38633C6.62749 7.39329 6.55653 7.51037 6.57963 7.61504C6.5906 7.64416 6.6095 7.67146 6.63727 7.69409L10.78 11.0711C11.1795 11.3967 11.3514 11.9259 11.2197 12.4241L10.1139 16.605C10.3526 16.3058 10.5907 15.9444 10.8227 15.4907C11.4931 14.1792 12.1257 12.066 12.4893 8.43129C12.5049 7.48168 13.2486 6.67704 14.2177 6.3977C15.2343 6.10468 16.4984 6.36349 17.7023 7.44283C18.9859 8.59362 19.2653 10.0891 19.1494 11.4517C19.0665 12.4266 18.78 13.3658 18.4943 14.1246H19.9083ZM7.12868 5.41202C7.26738 5.76989 7.55249 6.04265 7.90156 6.17039L6.68281 6.23821C5.76624 6.28922 5.26501 7.1833 5.49788 7.93938C5.56655 8.17971 5.70848 8.40727 5.93378 8.59093L8.85629 10.9732L9.15145 12.0892C9.19524 12.2547 9.01247 12.3875 8.86856 12.2947L6.75732 10.9333C6.32423 10.6541 5.76779 10.6541 5.33469 10.9333L3.22346 12.2947C3.07955 12.3875 2.89678 12.2547 2.94057 12.0892L3.5829 9.66057C3.71467 9.16238 3.54272 8.63317 3.14328 8.30757L1.19613 6.72036C1.06341 6.61216 1.13322 6.39731 1.30419 6.3878L3.81241 6.24822C4.32694 6.21958 4.77711 5.89252 4.96334 5.41202L5.87117 3.06969C5.93305 2.91003 6.15896 2.91003 6.22084 3.06969L7.12868 5.41202ZM24.7575 8.59093C25.1887 8.23945 25.3145 7.72716 25.2059 7.27236C25.0885 6.73659 24.6468 6.27446 23.9954 6.23821L22.3278 6.14541C22.648 6.00906 22.9073 5.74806 23.0376 5.41202L23.9454 3.06969C24.0073 2.91003 24.2332 2.91003 24.2951 3.06969L25.2029 5.41202C25.3891 5.89251 25.8393 6.21958 26.3538 6.24822L28.862 6.3878C29.033 6.39731 29.1028 6.61217 28.9701 6.72036L27.0229 8.30757C26.6235 8.63317 26.4516 9.16238 26.5833 9.66057L27.2257 12.0892C27.2694 12.2547 27.0867 12.3875 26.9428 12.2947L24.8315 10.9333C24.3984 10.6541 23.842 10.6541 23.4089 10.9333L21.2977 12.2947C21.1538 12.3875 20.971 12.2547 21.0148 12.0892L21.1656 11.5188L24.7575 8.59093ZM14.5293 7.47874C13.915 7.65582 13.6141 8.11198 13.6141 8.4618V8.48972L13.6113 8.5175C13.2411 12.2389 12.5856 14.5139 11.8244 16.0028C11.1002 17.4193 10.2938 18.0947 9.63891 18.6016L9.63892 29.6129C9.63892 29.8261 9.69175 29.984 9.78851 30.1137C9.8896 30.2492 10.0708 30.3963 10.3967 30.526C11.0671 30.7929 12.2135 30.9333 14.0368 30.851L14.0494 30.8504H23.1021C24.0548 30.8504 24.8272 30.0781 24.8272 29.1253C24.8272 28.4843 24.4778 27.9241 23.9563 27.6261L22.1172 26.5752H24.8272C25.7799 26.5752 26.5523 25.8029 26.5523 24.8501C26.5523 24.3124 26.3069 23.8324 25.9199 23.5151L24.7405 22.5483L26.2653 22.5177C27.1996 22.499 27.9515 21.7355 27.9515 20.7964C27.9515 20.0666 27.4971 19.4415 26.8537 19.1912L26.0039 18.8606L26.6807 18.2494C27.0304 17.9336 27.2489 17.4783 27.2489 16.9713C27.2489 16.0204 26.4781 15.2496 25.5273 15.2496H16.8098L17.1432 14.4667C17.4905 13.6511 17.93 12.5127 18.0284 11.3563C18.1254 10.2149 17.8877 9.12 16.9513 8.28053C15.9801 7.40982 15.1066 7.31236 14.5293 7.47874Z" fill="#058ED9"/>
</svg>
