<svg width="24" height="24" viewBox="0 0 24 24" fill="none" xmlns="http://www.w3.org/2000/svg">
<path fill-rule="evenodd" clip-rule="evenodd" d="M19.8263 23.9999H4.17562C3.11436 23.9999 2.25 23.158 2.25 22.123V6.71527C2.25 6.06372 2.51438 5.42527 2.97562 4.96402L7.21402 0.725616C7.68182 0.256872 8.30434 0 8.96527 0H19.8253C20.8865 0 21.75 0.841872 21.75 1.87594V22.124C21.75 23.1581 20.8875 23.9999 19.8263 23.9999ZM8.9653 1.4999C8.70468 1.4999 8.45904 1.60116 8.27436 1.78584L4.03596 6.02424C3.85409 6.20611 3.75002 6.4583 3.75002 6.71518V22.122C3.75002 22.3301 3.94128 22.4998 4.17564 22.4998H19.8253C20.0597 22.4998 20.25 22.331 20.25 22.1238V1.87577C20.25 1.66858 20.0597 1.49983 19.8253 1.49983L8.9653 1.4999ZM12.0001 17.2499C11.9313 17.2499 11.8647 17.2407 11.8015 17.2234C11.6797 17.1902 11.5648 17.1259 11.4694 17.0305L8.46942 14.0305C8.17597 13.7371 8.17597 13.2637 8.46942 12.9702C8.76287 12.6768 9.23629 12.6768 9.52974 12.9702L11.2501 14.6899V8.99993C11.2501 8.58555 11.5857 8.24993 12.0001 8.24993C12.4145 8.24993 12.7501 8.58555 12.7501 8.99993V14.6896L14.4694 12.9702C14.7629 12.6768 15.2363 12.6768 15.5297 12.9702C15.8232 13.2637 15.8232 13.7371 15.5297 14.0305L12.5467 17.0136C12.517 17.0452 12.4846 17.0742 12.4499 17.1002C12.3809 17.1523 12.3046 17.1908 12.225 17.2157C12.154 17.2379 12.0784 17.2499 12.0001 17.2499ZM6.75007 19.4999C6.75007 19.9143 7.08568 20.2499 7.50007 20.2499H16.5001C16.9145 20.2499 17.2501 19.9143 17.2501 19.4999C17.2501 19.0855 16.9145 18.7499 16.5001 18.7499H7.50007C7.08568 18.7499 6.75007 19.0855 6.75007 19.4999ZM5.2498 7.49992H7.87492C8.90805 7.49992 9.74992 6.65805 9.74992 5.62492V2.9998C9.74992 2.58542 9.4143 2.2498 8.99992 2.2498C8.58554 2.2498 8.24992 2.58542 8.24992 2.9998V5.62492C8.24992 5.83211 8.08211 5.99992 7.87492 5.99992H5.2498C4.83542 5.99992 4.4998 6.33554 4.4998 6.74992C4.4998 7.1643 4.83542 7.49992 5.2498 7.49992Z" fill="currentColor"/>
</svg>
