<svg width="16" height="16" viewBox="0 0 16 16" fill="none" xmlns="http://www.w3.org/2000/svg">
<g clip-path="url(#clip0_252_49508)">
<path fill-rule="evenodd" clip-rule="evenodd" d="M14.3833 1.49927C14.4678 1.42552 14.5875 1.40798 14.6895 1.45442C14.7916 1.50069 14.8571 1.60236 14.8572 1.71441V3.7144C14.8572 3.87219 14.7293 4.00011 14.5716 4.00011H12.2864C12.1673 4.00022 12.0607 3.92643 12.0188 3.81493C11.9769 3.70344 12.0085 3.57764 12.0982 3.49926L13.1122 2.61183C11.7364 1.29655 9.90487 0.565328 8.00175 0.571567C4.89954 0.572741 2.12487 2.50244 1.04357 5.41079C-0.037743 8.31913 0.802134 11.5933 3.14977 13.6217C5.49741 15.6501 8.85817 16.0052 11.5777 14.5123C11.7161 14.4364 11.8898 14.4871 11.9656 14.6254C12.0415 14.7638 11.9909 14.9375 11.8525 15.0134C10.672 15.6603 9.34777 15.9996 8.00175 16C4.40067 16.0014 1.24274 13.5954 0.287335 10.1226C-0.668075 6.6497 0.814658 2.96646 3.90947 1.12485C7.00428 -0.716769 10.9479 -0.262565 13.5433 2.23441L14.3833 1.49927ZM13.0468 3.42862H14.2862V2.34291L13.0468 3.42862Z" fill="#003876"/>
<path fill-rule="evenodd" clip-rule="evenodd" d="M9.71559 7.14291V6.8572C9.71465 6.06862 9.07577 5.42959 8.28737 5.42864V5.14293C8.28737 4.98514 8.15948 4.85722 8.00173 4.85722C7.84397 4.85722 7.71608 4.98514 7.71608 5.14293V5.42864C6.9273 5.42864 6.28786 6.06823 6.28786 6.8572C6.28786 7.64617 6.9273 8.28576 7.71608 8.28576V10C7.24281 10 6.85915 9.61628 6.85915 9.1429V8.85719C6.85915 8.69939 6.73126 8.57147 6.5735 8.57147C6.41575 8.57147 6.28786 8.69939 6.28786 8.85719V9.1429C6.2888 9.93148 6.92769 10.5705 7.71608 10.5715V10.8572C7.71608 11.015 7.84397 11.1429 8.00173 11.1429C8.15948 11.1429 8.28737 11.015 8.28737 10.8572V10.5715C9.07616 10.5715 9.71559 9.93187 9.71559 9.1429C9.71559 8.35393 9.07616 7.71434 8.28737 7.71434V6.00007C8.76064 6.00007 9.14431 6.38382 9.14431 6.8572V7.14291C9.14431 7.21869 9.1744 7.29136 9.22797 7.34494C9.28154 7.39852 9.35419 7.42863 9.42995 7.42863C9.58771 7.42863 9.71559 7.30071 9.71559 7.14291ZM9.14497 9.14291C9.14497 9.61629 8.76122 10 8.28784 10V8.28578C8.76122 8.28578 9.14497 8.66953 9.14497 9.14291ZM6.8593 6.85723C6.8593 7.33061 7.24305 7.71436 7.71643 7.71436V6.00009C7.24305 6.00009 6.8593 6.38385 6.8593 6.85723Z" fill="#003876"/>
<path d="M12.0357 4.62868C11.9896 4.73118 11.8876 4.79712 11.7753 4.79719C11.6936 4.79758 11.6157 4.7627 11.5616 4.70148C11.4797 4.60929 11.3924 4.52209 11.3001 4.44034C11.1818 4.33572 11.1706 4.15497 11.2753 4.03663C11.3799 3.91828 11.5606 3.90715 11.679 4.01177C11.7885 4.10882 11.892 4.21244 11.989 4.32205C12.0635 4.40619 12.0818 4.52619 12.0357 4.62868Z" fill="#003876"/>
<path d="M10.3601 3.75268C10.4979 3.82936 10.6719 3.77973 10.7485 3.64182C10.8252 3.50391 10.7756 3.32994 10.6377 3.25325C8.51909 2.07798 5.87837 2.44892 4.16534 4.16241C2.45232 5.8759 2.08157 8.51726 3.25665 10.6363C3.3334 10.7742 3.50739 10.8238 3.64527 10.747C3.78315 10.6703 3.8327 10.4962 3.75595 10.3583C2.70466 8.46234 3.03643 6.0991 4.56913 4.56604C6.10182 3.03298 8.46451 2.70113 10.3601 3.75268Z" fill="#003876"/>
<path d="M11.8387 11.8377C10.1257 13.5512 7.485 13.9221 5.36638 12.7469C5.2285 12.6702 5.17888 12.4962 5.25555 12.3583C5.33222 12.2204 5.50615 12.1707 5.64403 12.2474C7.53957 13.299 9.90226 12.9671 11.435 11.4341C12.9677 9.90101 13.2994 7.53777 12.2481 5.64178C12.1714 5.50387 12.2209 5.32984 12.3588 5.25307C12.4967 5.1763 12.6707 5.22587 12.7474 5.36378C13.9225 7.48285 13.5518 10.1242 11.8387 11.8377Z" fill="#003876"/>
<path d="M4.03874 11.2749C3.92087 11.3797 3.91012 11.5601 4.01474 11.6781C4.11162 11.7878 4.21514 11.8914 4.32474 11.9884C4.44308 12.093 4.62383 12.0819 4.72845 11.9635C4.83306 11.8452 4.82194 11.6644 4.70359 11.5598C4.61131 11.4781 4.52402 11.3908 4.44216 11.2987C4.39182 11.242 4.32102 11.2077 4.24536 11.2032C4.1697 11.1988 4.09538 11.2246 4.03874 11.2749Z" fill="#003876"/>
<path d="M15.4187 9.19299C15.4814 9.15011 15.5586 9.13393 15.6332 9.14804C15.7076 9.16217 15.7734 9.2053 15.8161 9.26794C15.8587 9.33057 15.8747 9.40759 15.8606 9.48204C15.7848 9.88487 15.6778 10.2812 15.5406 10.6675C15.5 10.7812 15.3923 10.8572 15.2715 10.8572C15.2388 10.8576 15.2064 10.8524 15.1755 10.842C15.1041 10.8166 15.0457 10.7638 15.0133 10.6953C14.9808 10.6268 14.9768 10.5483 15.0023 10.4769C15.1297 10.1184 15.2289 9.75051 15.2992 9.37661C15.313 9.30195 15.3561 9.23588 15.4187 9.19299Z" fill="#003876"/>
<path d="M14.1742 12.1271C13.9104 12.5223 13.6092 12.8911 13.2748 13.2286C13.1938 13.299 13.1591 13.4088 13.1849 13.513C13.2108 13.6172 13.2928 13.6981 13.3974 13.7224C13.5019 13.7468 13.6112 13.7105 13.6805 13.6286C14.0409 13.2655 14.3654 12.8685 14.6496 12.4431C14.7063 12.3582 14.7133 12.2495 14.6681 12.158C14.6229 12.0665 14.5323 12.006 14.4304 11.9994C14.3285 11.9928 14.2309 12.0411 14.1742 12.126V12.1271Z" fill="#003876"/>
<path d="M15.3034 6.62609C15.2733 6.47131 15.3743 6.32145 15.5291 6.29123C15.6035 6.27664 15.6807 6.29222 15.7436 6.33456C15.8065 6.3769 15.85 6.44251 15.8645 6.51694C15.9402 6.90847 15.9855 7.30527 15.9999 7.70379C16.0028 7.77953 15.9754 7.85331 15.9239 7.90887C15.8723 7.96444 15.8008 7.99725 15.7251 8.00007H15.7142C15.5605 8.00018 15.4342 7.87858 15.4285 7.72493C15.4152 7.35597 15.3734 6.98859 15.3034 6.62609Z" fill="#003876"/>
</g>
<defs>
<clipPath id="clip0_252_49508">
<rect width="16.0001" height="16" fill="white"/>
</clipPath>
</defs>
</svg>
