<svg width="65" height="64" viewBox="0 0 65 64" fill="none" xmlns="http://www.w3.org/2000/svg">
<path d="M0.474792 54.168C0.658412 53.2666 0.825339 52.3652 1.20927 51.5305C2.44454 48.8263 4.51444 47.1236 7.43567 46.5394C7.93645 46.4392 8.10338 46.2556 8.08669 45.7715C8.06999 45.0704 8.30369 44.4194 8.72101 43.8352C8.90463 43.5681 8.9714 43.3344 8.7544 43.0506C7.1352 40.9139 8.53739 37.5921 11.709 37.542C12.8274 37.5253 12.7106 37.4752 12.7106 36.4903C12.7106 26.3745 12.7106 16.242 12.7106 6.12624C12.7106 3.08816 14.6803 0.66771 17.5849 0.0834637C17.9354 0.0166927 18.286 0 18.6365 0C25.9312 0 33.2427 0 40.5374 0C42.1399 0 43.5254 0.550861 44.6438 1.70266C46.5969 3.70579 48.5165 5.72561 50.4195 7.76213C51.5713 8.9807 52.1055 10.4497 52.0721 12.1356C52.0387 14.8065 52.0721 17.4606 52.0554 20.1315C52.0554 20.699 52.2056 20.8826 52.7899 20.8826C54.4425 20.8826 56.095 20.7324 57.7309 20.9661C61.1863 21.4836 63.7737 23.9875 64.4414 27.4095C64.4748 27.5764 64.5082 27.7267 64.5583 27.8936C64.5583 37.5921 64.5583 47.3073 64.5583 57.0057C64.3413 58.0908 64.0742 59.1591 63.4899 60.1106C62.2213 62.2473 60.3183 63.4825 57.9145 64C51.0705 64 44.2265 64 37.3825 64C37.1154 63.9332 36.865 63.8665 36.5979 63.783C33.9271 62.9817 32.1409 61.2624 31.1895 58.6583C30.889 57.8237 30.8389 56.9557 30.7554 56.0876C30.7387 55.8039 30.6887 55.5535 30.3047 55.5535C29.9542 55.5535 29.637 55.5535 29.5703 56.0042C29.4868 56.505 29.2865 56.9724 28.9693 57.3563C28.7523 57.6234 28.8024 57.8237 28.9693 58.0741C29.7873 59.2593 29.9041 60.5112 29.1863 61.7799C28.4852 63.0151 27.3835 63.5493 25.9646 63.5493C20.3392 63.5326 14.697 63.5493 9.07156 63.5493C6.20041 63.5493 3.93019 62.3307 2.16076 60.1106C1.17589 58.8753 0.70849 57.4064 0.441406 55.8706C0.474792 55.3365 0.474792 54.7522 0.474792 54.168ZM14.8973 21.2999C14.8973 26.3578 14.8973 31.4158 14.8973 36.4737C14.8973 37.542 14.8973 37.542 15.999 37.542C19.2875 37.542 22.5927 37.542 25.8812 37.542C27.3167 37.542 28.5186 38.0428 29.2197 39.3615C29.9041 40.6301 29.8373 41.8821 29.0027 43.0673C28.8358 43.301 28.8024 43.4846 28.9693 43.735C29.9208 45.1038 29.9041 46.4893 28.9693 47.8581C28.8358 48.0417 28.769 48.2087 28.9192 48.4257C29.9208 49.8612 29.9208 51.2801 28.9025 52.7157C28.7189 52.9661 28.8024 53.1831 29.0361 53.2833C29.5035 53.4836 30.0377 53.4669 30.505 53.3333C30.9057 53.2165 30.7387 52.7658 30.7387 52.4486C30.7554 44.8534 30.7387 37.2415 30.7554 29.6463C30.7554 28.9285 30.7721 28.1774 30.9057 27.4763C31.6235 23.5535 34.8452 20.8993 38.8681 20.8826C42.3068 20.8826 45.7455 20.8659 49.2009 20.8826C49.685 20.8826 49.9187 20.7658 49.9187 20.2149C49.902 17.4439 49.9187 14.6729 49.902 11.9019C49.902 11.0339 49.8686 11.0172 48.9672 11.0172C47.0142 11.0172 45.0444 11.0339 43.0914 11.0172C41.8895 11.0005 41.5223 10.6166 41.5223 9.4314C41.5223 7.22796 41.5056 5.02452 41.539 2.80438C41.539 2.22014 41.3553 2.05321 40.7878 2.0699C37.7664 2.08659 34.745 2.08659 31.7069 2.08659C27.5337 2.08659 23.3606 2.0699 19.1874 2.08659C16.4331 2.11998 14.8973 3.65571 14.8973 6.35994C14.8973 11.3344 14.8973 16.3088 14.8973 21.2999ZM62.5384 42.5665C62.5384 38.0261 62.5384 33.4857 62.5384 28.9452C62.5384 25.4731 60.0011 22.9525 56.529 22.9525C50.6532 22.9358 44.7607 22.9525 38.8848 22.9525C35.4294 22.9525 32.842 25.4564 32.842 28.9285C32.8086 37.9593 32.8253 47.0068 32.842 56.0376C32.842 57.3062 33.1592 58.5081 33.9271 59.5597C35.2458 61.3959 37.0987 62.1137 39.2854 62.1137C44.8942 62.1137 50.503 62.1137 56.1284 62.1137C56.7794 62.1137 57.4305 62.0803 58.0481 61.9134C60.7857 61.2123 62.5551 58.9588 62.5551 56.121C62.5551 51.5973 62.5384 47.0736 62.5384 42.5665ZM12.527 61.5462C16.2828 61.5629 19.1206 58.7251 19.1373 54.9525C19.154 51.3302 16.2661 48.4257 12.6104 48.3923C8.95471 48.3422 5.9834 51.2968 5.9834 54.9525C5.9834 58.675 8.82117 61.5295 12.527 61.5462ZM18.937 39.7121C17.1675 39.7121 15.3981 39.7121 13.612 39.7121C12.9276 39.7121 12.2265 39.6954 11.5421 39.7287C10.8243 39.7621 10.3068 40.2796 10.2567 40.9473C10.2067 41.6484 10.6073 42.1492 11.3418 42.3161C11.5421 42.3662 11.7591 42.3829 11.9594 42.3829C16.5499 42.3829 21.1404 42.3829 25.7142 42.3829C26.0147 42.3829 26.2985 42.3662 26.5823 42.266C27.1498 42.0657 27.467 41.6651 27.467 41.0475C27.467 40.2462 26.8994 39.7287 25.9813 39.7287C23.6443 39.712 21.2907 39.7121 18.937 39.7121ZM18.937 44.4695C16.6668 44.4695 14.3965 44.4695 12.1263 44.4695C11.7424 44.4695 11.3752 44.4862 11.0246 44.6364C10.5071 44.8534 10.1566 45.5044 10.2901 46.0219C10.4404 46.6062 10.9411 46.3725 11.275 46.3725C12.8942 46.3391 14.48 46.4058 15.999 47.0569C16.2161 47.157 16.4831 47.1236 16.7335 47.1236C19.1707 47.1236 21.6078 47.1236 24.045 47.1236C24.7794 47.1236 25.4972 47.1403 26.2317 47.1069C26.9328 47.0736 27.4336 46.5728 27.467 45.9384C27.517 45.204 27.1498 44.7032 26.4153 44.5529C26.1315 44.4862 25.8311 44.4695 25.5473 44.4695C23.3606 44.4695 21.1571 44.4695 18.937 44.4695ZM18.4362 61.3625C18.6699 61.3959 18.77 61.4126 18.8702 61.4126C21.2906 61.4126 23.7111 61.4293 26.1315 61.4126C27.0163 61.4126 27.5004 60.9285 27.4837 60.1273C27.4837 59.3594 26.9495 58.8419 26.0982 58.8419C24.312 58.8252 22.5092 58.8419 20.7231 58.8419C20.5061 58.8419 20.2891 58.8419 20.1722 59.0589C19.7549 59.8602 19.1373 60.5613 18.4362 61.3625ZM22.9432 49.2937C21.8749 49.2937 20.8233 49.2937 19.7549 49.2937C19.588 49.2937 19.3877 49.2269 19.2875 49.3938C19.1707 49.5775 19.371 49.6943 19.4711 49.8112C19.8551 50.3119 20.1722 50.8461 20.4226 51.4137C20.5562 51.7475 20.7732 51.8811 21.1404 51.8811C22.8097 51.8644 24.4623 51.8811 26.1315 51.8644C26.9662 51.8644 27.5004 51.3302 27.5004 50.5623C27.5004 49.7778 27.0163 49.2937 26.1315 49.277C25.0632 49.2937 24.0116 49.2937 22.9432 49.2937ZM23.878 56.6385C24.6626 56.6385 25.4638 56.6552 26.2484 56.6218C27.0163 56.5884 27.4837 56.0709 27.4837 55.3365C27.4837 54.602 26.9996 54.0678 26.2317 54.0678C24.7127 54.0344 23.1936 54.0678 21.6746 54.0511C21.3073 54.0511 21.1571 54.1847 21.1571 54.5686C21.1571 55.0861 21.1738 55.6202 21.107 56.121C21.0403 56.5383 21.2072 56.6385 21.5577 56.6385C22.3423 56.6385 23.1102 56.6385 23.878 56.6385ZM43.8426 3.93949C43.7925 3.97287 43.7424 3.98957 43.6923 4.02295C43.6923 5.14137 43.6923 6.25978 43.6923 7.37819C43.6923 8.88054 43.6923 8.88054 45.2114 8.88054C46.263 8.88054 47.3146 8.88054 48.5165 8.88054C46.8806 7.1445 45.3616 5.54199 43.8426 3.93949ZM3.34595 56.1878C2.61146 56.1878 2.57808 56.2379 2.77839 56.9223C2.82847 57.0725 2.87855 57.2394 2.96201 57.3897C3.16232 57.7736 3.54626 57.59 3.84673 57.6234C3.98027 57.6401 4.1472 57.6734 4.21397 57.4898C4.43097 57.0057 3.88011 56.1878 3.34595 56.1878ZM3.2291 54.1346C3.93019 54.1346 4.09712 53.951 4.11381 53.1664C4.1305 52.6489 3.74657 52.8326 3.49618 52.8159C2.86186 52.7992 2.62816 53.0996 2.62816 53.8007C2.61146 54.3349 3.02878 54.0344 3.2291 54.1346Z" fill="#003876"/>
<path d="M26.2315 31.3156C26.2482 30.531 25.8976 29.9468 25.1965 29.6129C24.4954 29.2791 23.7776 29.0287 23.0765 28.6948C21.4907 27.9604 20.8397 26.7585 21.1235 25.0558C21.3071 23.9875 21.908 23.2196 22.9096 22.8357C23.3102 22.6854 23.4939 22.4684 23.4939 22.0177C23.4939 21.35 23.8945 20.916 24.4453 20.916C24.9795 20.916 25.3801 21.3166 25.4135 22.001C25.4302 22.4184 25.6138 22.5352 25.9644 22.602C26.4318 22.6854 26.8992 22.8023 27.3165 23.0694C27.8173 23.3865 27.9508 23.8706 27.7004 24.3547C27.45 24.8221 27.0494 24.9557 26.4819 24.6886C25.6973 24.3213 24.9127 24.1544 24.0614 24.3547C23.4605 24.4883 23.0765 24.8221 22.9764 25.4064C22.8762 25.9906 23.0765 26.4747 23.594 26.7919C24.028 27.0756 24.5288 27.2426 25.0129 27.4262C25.5805 27.6432 26.148 27.8602 26.6488 28.2107C28.4182 29.3959 28.6853 32.4006 27.1663 33.8863C26.9159 34.1367 26.6321 34.3704 26.2982 34.4872C25.7474 34.6708 25.3801 34.9045 25.3801 35.5889C25.3801 36.0897 24.9461 36.3735 24.412 36.3568C23.8611 36.3234 23.5272 35.9896 23.5272 35.4888C23.5272 34.9379 23.2769 34.7209 22.7928 34.6041C22.2586 34.4705 21.7912 34.1868 21.3906 33.8195C21.1903 33.6359 21.0066 33.4356 20.9065 33.1685C20.7062 32.6844 20.8397 32.2671 21.2403 31.9499C21.6577 31.6328 22.0416 31.7997 22.3421 32.1502C22.943 32.868 23.7109 33.1017 24.629 33.035C25.6973 32.9515 26.2482 32.4006 26.2315 31.3156Z" fill="#003876"/>
<path d="M29.3696 12.8867C32.0738 12.8867 34.7947 12.8867 37.4989 12.8867C37.983 12.8867 38.367 13.0036 38.6007 13.4543C38.8844 14.0051 38.584 14.6728 37.9663 14.8398C37.6492 14.9232 37.2986 14.9399 36.9815 14.9399C31.8902 14.9399 26.7989 14.9399 21.7243 14.9399C21.4405 14.9399 21.14 14.9232 20.8563 14.8732C20.2887 14.773 19.9549 14.339 20.0049 13.8215C20.0383 13.304 20.439 12.9201 21.0232 12.9201C22.0081 12.9034 22.9763 12.9201 23.9611 12.9201C25.7472 12.8867 27.5501 12.8867 29.3696 12.8867Z" fill="#003876"/>
<path d="M35.7636 19.5807C33.2764 19.5807 30.8059 19.5807 28.3187 19.5807C28.1184 19.5807 27.9013 19.5974 27.701 19.564C27.1335 19.4973 26.7662 19.0799 26.7495 18.5792C26.7329 18.0784 27.1168 17.6444 27.6676 17.5609C27.868 17.5275 28.085 17.5442 28.2853 17.5442C33.2931 17.5442 38.3009 17.5442 43.3088 17.5442C44.3771 17.5442 44.8445 17.8614 44.8445 18.5792C44.8278 19.2803 44.3771 19.5807 43.2921 19.5807C40.7715 19.5807 38.2675 19.5807 35.7636 19.5807Z" fill="#003876"/>
<path d="M22.4589 19.5644C21.9748 19.5644 21.4907 19.5811 21.0233 19.5644C20.389 19.531 19.9717 19.1137 19.9717 18.5461C19.9717 17.9786 20.389 17.5613 21.0233 17.5446C21.9748 17.5112 22.943 17.5112 23.8945 17.5446C24.5455 17.5613 24.9461 17.9953 24.9461 18.5628C24.9461 19.1137 24.5288 19.531 23.8945 19.5644C23.4271 19.5978 22.943 19.5644 22.4589 19.5644Z" fill="#003876"/>
<path d="M42.657 14.9238C42.2063 14.9071 41.7389 14.9572 41.2882 14.8403C40.754 14.7068 40.4702 14.3562 40.5036 13.8054C40.537 13.2545 40.8876 12.9206 41.4384 12.9039C42.2731 12.8706 43.1077 12.8706 43.9256 12.9039C44.4431 12.9206 44.777 13.2378 44.827 13.772C44.8771 14.3228 44.6267 14.6901 44.0926 14.8403C43.6252 14.9572 43.1411 14.9238 42.657 14.9238Z" fill="#003876"/>
<path d="M47.6819 24.9055C50.5197 24.9055 53.3575 24.9055 56.1952 24.9055C58.5155 24.9055 59.8342 26.241 59.8509 28.5613C59.8509 29.5461 59.8676 30.5143 59.8509 31.4992C59.8176 33.4522 58.4154 34.8377 56.479 34.8377C53.2072 34.8377 49.9354 34.8377 46.647 34.8377C46.4634 34.8377 46.263 34.8377 46.0794 34.8043C45.612 34.6875 45.3116 34.3536 45.2949 33.8695C45.2782 33.4188 45.5119 33.085 45.9626 32.9014C46.263 32.7845 46.5802 32.8012 46.8807 32.8012C49.9855 32.8012 53.0904 32.8012 56.2119 32.8012C57.4639 32.8012 57.7977 32.4507 57.7977 31.1987C57.7977 30.2472 57.8144 29.279 57.7977 28.3276C57.781 27.4261 57.347 26.9754 56.4456 26.9754C50.6198 26.9754 44.8108 26.9754 38.985 26.9754C38.0836 26.9754 37.6162 27.4595 37.5995 28.3776C37.5828 29.3959 37.5828 30.4141 37.5995 31.4324C37.6162 32.3338 38.0502 32.7845 38.9349 32.7845C39.8697 32.8012 40.8045 32.7845 41.756 32.8012C42.0064 32.8012 42.2568 32.8179 42.4905 32.8847C43.008 33.0182 43.2417 33.4022 43.2083 33.9196C43.1749 34.4538 42.841 34.8043 42.3402 34.821C40.9881 34.8544 39.6193 34.9045 38.2839 34.7876C36.8817 34.6541 35.8301 33.4856 35.6465 32.0834C35.4628 30.7146 35.4795 29.3291 35.6131 27.977C35.7967 26.0573 37.1154 24.9389 39.0852 24.9222C41.9229 24.8888 44.8108 24.9055 47.6819 24.9055Z" fill="#003876"/>
<path d="M59.9509 52.3487C59.9509 53.8844 59.9509 55.4201 59.9509 56.9726C59.9342 58.9423 58.7991 60.0607 56.846 60.0774C56.3286 60.0774 55.8111 60.0941 55.2769 60.0774C53.8247 60.0273 52.6395 58.8755 52.6395 57.44C52.6228 54.0346 52.6228 50.6126 52.6395 47.2073C52.6395 45.8719 53.7412 44.8369 55.1601 44.7869C55.8111 44.7535 56.4454 44.7702 57.0964 44.7869C58.8659 44.8035 59.9175 45.8552 59.9509 47.6413C59.9509 47.6747 59.9509 47.7248 59.9509 47.7582C59.9509 49.2772 59.9509 50.8129 59.9509 52.3487ZM54.676 52.3487C54.676 53.9011 54.676 55.4702 54.676 57.0226C54.676 57.8239 54.8763 58.0075 55.6776 58.0075C56.1116 58.0075 56.5456 58.0075 56.9963 58.0075C57.5972 58.0242 57.8977 57.7237 57.8977 57.1395C57.8977 53.9178 57.8977 50.6961 57.8977 47.4577C57.8977 46.9736 57.664 46.79 57.1966 46.79C56.6624 46.79 56.1116 46.79 55.5774 46.79C54.7928 46.79 54.676 46.9068 54.676 47.7081C54.676 49.2772 54.676 50.8129 54.676 52.3487Z" fill="#003876"/>
<path d="M51.3374 56.472C51.3374 56.9727 51.3374 57.4735 51.3374 57.9743C51.3208 59.2096 50.4861 60.0609 49.2508 60.0776C48.2159 60.0943 47.1643 60.0943 46.1293 60.0776C44.9274 60.0609 44.0594 59.2429 44.026 58.0578C43.9926 57.0061 43.9926 55.9378 44.026 54.8694C44.0761 53.6342 44.9107 52.8162 46.146 52.7829C47.1809 52.7495 48.2326 52.7495 49.2675 52.7829C50.5028 52.8162 51.3041 53.6843 51.3207 54.9195C51.3541 55.437 51.3374 55.9545 51.3374 56.472ZM46.0792 56.3885C46.0792 58.0077 46.0792 58.0244 47.7318 58.0244C49.5513 58.0244 49.2842 58.2247 49.2842 56.472C49.3009 54.8194 49.2842 54.8194 47.6483 54.8194C46.0792 54.8194 46.0792 54.8194 46.0792 56.3885Z" fill="#003876"/>
<path d="M47.7318 36.3731C48.2493 36.3731 48.7668 36.3564 49.3009 36.3731C50.4527 36.3898 51.3208 37.2245 51.3374 38.3763C51.3541 39.4112 51.3541 40.4629 51.3374 41.4978C51.3208 42.7498 50.5529 43.5844 49.3009 43.6512C48.2159 43.7013 47.1309 43.7013 46.0458 43.6512C44.8773 43.6011 44.0594 42.7498 44.026 41.5813C43.9926 40.5296 43.9926 39.4613 44.026 38.393C44.0594 37.1744 44.9274 36.3731 46.1627 36.3564C46.6969 36.3731 47.2143 36.3731 47.7318 36.3731ZM47.615 41.6314C49.2842 41.6314 49.3009 41.6314 49.2842 39.9621C49.2675 38.1426 49.4845 38.4263 47.7318 38.4097C46.0625 38.393 46.0625 38.4097 46.0625 40.0789C46.0792 41.6314 46.0792 41.6314 47.615 41.6314Z" fill="#003876"/>
<path d="M51.3372 48.4086C51.3372 48.926 51.3372 49.4435 51.3372 49.961C51.3205 51.1796 50.4858 52.0309 49.2506 52.0476C48.2323 52.0643 47.2141 52.0643 46.1791 52.0476C44.9438 52.0309 44.0758 51.2296 44.0257 49.9944C43.9757 48.9427 43.9924 47.8744 44.0257 46.8061C44.0758 45.5875 44.9439 44.7528 46.1624 44.7362C47.1807 44.7195 48.1989 44.7195 49.2339 44.7362C50.5025 44.7695 51.3205 45.6042 51.3372 46.8895C51.3539 47.4237 51.3372 47.9245 51.3372 48.4086ZM46.079 48.4753C46.079 50.0278 46.079 50.0278 47.6314 50.0278C47.6481 50.0278 47.6648 50.0278 47.6982 50.0278C49.3173 50.0278 49.3173 50.0278 49.3173 48.4086C49.3173 46.8227 49.3173 46.8227 47.7315 46.8227C46.079 46.8227 46.079 46.8227 46.079 48.4753Z" fill="#003876"/>
<path d="M56.3117 36.373C56.7957 36.373 57.2631 36.373 57.7472 36.373C58.9992 36.3897 59.8672 37.1242 59.934 38.3762C59.9841 39.4779 59.9841 40.5796 59.934 41.6813C59.8839 42.7998 59.0326 43.6177 57.8975 43.6678C56.8291 43.7179 55.7775 43.7179 54.7092 43.6678C53.4238 43.6177 52.6393 42.7664 52.6393 41.481C52.6393 40.4628 52.6226 39.4445 52.6393 38.4263C52.6559 37.2244 53.4906 36.3897 54.6925 36.373C55.2266 36.373 55.7775 36.373 56.3117 36.373ZM56.2783 41.6313C57.9142 41.6313 57.9142 41.6313 57.9142 39.9954C57.9142 38.4096 57.9142 38.4096 56.3284 38.4096C54.4087 38.4263 54.6925 38.1926 54.6925 40.0621C54.6758 41.6313 54.6758 41.6313 56.2783 41.6313Z" fill="#003876"/>
<path d="M42.8412 56.4553C42.8412 56.9894 42.8579 57.5403 42.8412 58.0745C42.8078 59.2096 41.9898 60.0442 40.8547 60.0609C39.753 60.0776 38.6513 60.0776 37.5496 60.0609C36.548 60.0442 35.7634 59.3765 35.6132 58.3582C35.4463 57.1063 35.463 55.8209 35.5965 54.569C35.7134 53.5006 36.5146 52.8162 37.5996 52.7829C38.6847 52.7495 39.7697 52.7495 40.8547 52.7829C42.0399 52.8329 42.8245 53.6676 42.8412 54.8361C42.8579 55.3702 42.8412 55.9211 42.8412 56.4553ZM39.2188 54.8194C38.9351 54.8194 38.6346 54.8527 38.3508 54.8194C37.7666 54.7526 37.4995 54.9529 37.5663 55.5705C37.5996 55.9044 37.5663 56.2382 37.5663 56.5721C37.5663 58.0411 37.5663 58.0411 39.0686 58.0411C39.1354 58.0411 39.1855 58.0411 39.2522 58.0411C41.0384 58.0411 40.8547 58.2414 40.8547 56.4553C40.8714 54.8194 40.8714 54.8194 39.2188 54.8194Z" fill="#003876"/>
<path d="M42.8411 48.3922C42.8411 48.9598 42.8578 49.5106 42.8411 50.0782C42.8077 51.2133 41.9897 52.0312 40.8546 52.0646C39.7529 52.0813 38.6512 52.098 37.5495 52.0646C36.5479 52.0312 35.7634 51.3635 35.6298 50.3453C35.4629 49.0933 35.4796 47.808 35.6131 46.556C35.73 45.5211 36.5145 44.82 37.5662 44.7866C38.6679 44.7365 39.7696 44.7365 40.8713 44.7866C42.0398 44.8367 42.8244 45.688 42.8578 46.8398C42.8578 47.3573 42.8411 47.8747 42.8411 48.3922ZM39.2688 46.8231C39.2021 46.8231 39.152 46.8231 39.0852 46.8231C37.5829 46.8231 37.5829 46.8231 37.5829 48.3421C37.5829 50.0281 37.5829 50.0281 39.2521 50.0281C40.888 50.0281 40.888 50.0281 40.888 48.4423C40.8713 46.8231 40.8713 46.8231 39.2688 46.8231Z" fill="#003876"/>
<path d="M42.8408 39.9792C42.8408 40.48 42.8408 40.9807 42.8408 41.4815C42.8241 42.7669 42.0563 43.6182 40.7876 43.6683C39.7527 43.7183 38.701 43.7183 37.6661 43.6683C36.4475 43.6182 35.6295 42.8336 35.5628 41.6318C35.496 40.5467 35.496 39.4617 35.5628 38.3934C35.6462 37.0746 36.4642 36.3902 37.7996 36.3902C38.8012 36.3902 39.8027 36.3735 40.8043 36.3902C42.0229 36.4069 42.8241 37.2249 42.8575 38.4267C42.8575 38.9442 42.8408 39.4617 42.8408 39.9792ZM39.1684 41.6318C39.1851 41.6318 39.2018 41.6318 39.2352 41.6318C40.8711 41.6318 40.8711 41.6318 40.8711 40.0126C40.8711 38.4101 40.8711 38.4101 39.2519 38.4101C37.5826 38.4101 37.5826 38.4101 37.5826 40.0793C37.5659 41.6318 37.5659 41.6318 39.1684 41.6318Z" fill="#003876"/>
<path d="M15.0308 52.0808C15.0308 52.8153 14.3798 53.266 13.7121 53.049C13.4116 52.9489 13.1445 52.7819 12.8107 52.8153C12.577 52.832 12.2598 52.7486 12.1763 53.0824C12.0929 53.433 12.3767 53.5498 12.627 53.65C12.9108 53.7835 13.1946 53.9004 13.4951 54.0172C14.4966 54.4512 15.131 55.1523 15.181 56.2874C15.2311 57.3891 14.9306 58.3072 13.8957 58.8581C13.6787 58.975 13.5785 59.1586 13.4951 59.3756C13.3281 59.7929 13.011 60.06 12.5436 60.06C12.0929 60.06 11.7757 59.8263 11.6255 59.4257C11.5086 59.1252 11.3083 58.9583 11.0245 58.8414C10.6239 58.6578 10.2734 58.3907 10.0564 57.9901C9.80597 57.5227 9.92282 56.9551 10.3234 56.638C10.7575 56.3041 11.1748 56.3876 11.5587 56.7548C11.8258 57.0219 12.1263 57.1721 12.5102 57.1554C12.794 57.1387 13.0611 57.0887 13.1612 56.7882C13.2614 56.471 13.1445 56.1873 12.8607 56.037C12.5102 55.8367 12.1096 55.6865 11.7256 55.5196C10.2901 54.8852 9.7392 53.7501 10.2066 52.4147C10.2734 52.1977 10.3735 51.9807 10.5238 51.8138C10.9578 51.313 11.5086 50.9624 11.8258 50.2947C12.1096 49.6938 13.0611 49.7939 13.3782 50.4116C13.5952 50.8289 13.879 51.0292 14.2796 51.1794C14.7303 51.3297 15.0141 51.6635 15.0308 52.0808Z" fill="#003876"/>
</svg>
