<svg width="16" height="16" viewBox="0 0 16 16" fill="none" xmlns="http://www.w3.org/2000/svg">
<g clip-path="url(#clip0_252_49509)">
<path fill-rule="evenodd" clip-rule="evenodd" d="M4.66666 7.33337H1.33333V14.6667H4.66666V7.33337ZM3.99982 7.99993V14H1.9999V7.99993H3.99982Z" fill="#003876"/>
<path fill-rule="evenodd" clip-rule="evenodd" d="M5.33333 7.33337H8.66666V14.6667H5.33333V7.33337ZM7.99985 14V7.99993H5.99993V14H7.99985Z" fill="#003876"/>
<path fill-rule="evenodd" clip-rule="evenodd" d="M12.6667 7.33337H9.33335V14.6667H12.6667V7.33337ZM11.9999 7.99993V14H9.99997V7.99993H11.9999Z" fill="#003876"/>
<path fill-rule="evenodd" clip-rule="evenodd" d="M14 1C14 0.447715 14.4477 0 15 0C15.5523 0 16 0.447715 16 1C16 1.38375 15.7838 1.71701 15.4666 1.88467V8.66663H16V13.3333H14V16H0V6H14V8.66663H14.6667V1.94309C14.2783 1.80581 14 1.4354 14 1ZM15.3334 1C15.3334 0.815907 15.1841 0.666669 15 0.666669C14.8159 0.666669 14.6667 0.815907 14.6667 1C14.6667 1.1841 14.8159 1.33334 15 1.33334C15.1841 1.33334 15.3334 1.1841 15.3334 1ZM14 9.33332V12.6665H15.3333V9.33332H14ZM13.3333 6.66655V15.3332H0.66665V6.66655H13.3333Z" fill="#003876"/>
</g>
<defs>
<clipPath id="clip0_252_49509">
<rect width="16" height="16" fill="white"/>
</clipPath>
</defs>
</svg>
