<svg width="16" height="16" viewBox="0 0 16 16" fill="none" xmlns="http://www.w3.org/2000/svg">
<path fill-rule="evenodd" clip-rule="evenodd" d="M12.2714 1.66675C12.2714 1.33058 11.9982 1.05737 11.662 1.05737H4.51307C4.1769 1.05737 3.90369 1.33058 3.90369 1.66675V2.11514H3.33798C3.00182 2.11514 2.72861 2.38835 2.72861 2.72452V13.3398C2.72861 13.6755 3.00182 13.9487 3.33748 13.9492L10.4789 13.9558H10.4794C10.6419 13.9558 10.7948 13.8923 10.91 13.7775C11.0253 13.6623 11.0888 13.5094 11.0888 13.3464V12.3206L12.2131 11.1765C12.2501 11.1389 12.271 11.0871 12.2715 11.0343L12.2714 1.66675ZM4.30994 1.66675C4.30994 1.55452 4.40084 1.46362 4.51307 1.46362H11.6615C11.7737 1.46362 11.8646 1.55452 11.8646 1.66675L11.8651 10.8307H10.4428C10.3306 10.8307 10.2397 10.9216 10.2397 11.0338V12.4852H4.51305C4.40083 12.4852 4.30993 12.3943 4.30993 12.282L4.30994 1.66675ZM10.6825 13.3465C10.6825 13.4008 10.6612 13.4516 10.6231 13.4902C10.5845 13.5283 10.5338 13.5496 10.4794 13.5496L3.33799 13.543C3.22627 13.543 3.13487 13.4516 3.13487 13.3399V2.72459C3.13487 2.61236 3.22576 2.52147 3.33799 2.52147H3.9037V12.2821C3.9037 12.6183 4.17691 12.8915 4.51307 12.8915H10.4428C10.4966 12.8915 10.5499 12.8692 10.5875 12.8306L10.6825 12.7341L10.6825 13.3465ZM10.646 12.1917V11.237H11.5839L10.646 12.1917ZM7.68134 6.68854H6.6581C6.54587 6.68854 6.45497 6.77944 6.45497 6.89166V8.25159H5.63486C5.52263 8.25159 5.43173 8.34249 5.43173 8.45472V9.87666C5.43173 9.98888 5.52263 10.0798 5.63486 10.0798H8.70455C8.81677 10.0798 8.90767 9.98888 8.90767 9.87666V7.4051C8.90767 7.29287 8.81677 7.20197 8.70455 7.20197H7.88443V6.8917C7.88443 6.77948 7.79357 6.68854 7.68134 6.68854ZM5.83742 8.65778H6.45442V9.6734H5.83742V8.65778ZM6.86117 8.45465V7.09472H7.47817V9.6734H6.86117V8.45465ZM8.5019 7.60813V9.67344H7.88491V7.60813H8.5019ZM9.23615 10.9258H5.10306C4.99083 10.9258 4.89993 10.8349 4.89993 10.7226C4.89993 10.6104 4.99083 10.5195 5.10306 10.5195H9.23615C9.34837 10.5195 9.43927 10.6104 9.43927 10.7226C9.43927 10.8349 9.34837 10.9258 9.23615 10.9258ZM7.77976 3.6802H9.05843C9.17066 3.6802 9.26156 3.5893 9.26156 3.47707C9.26156 2.65999 8.59683 1.99533 7.77982 1.99533C7.66759 1.99533 7.57669 2.08623 7.57669 2.19846V3.47712C7.57669 3.58935 7.66754 3.6802 7.77976 3.6802ZM7.98289 2.42082C8.41351 2.50359 8.75324 2.84332 8.83601 3.27395H7.98289V2.42082ZM5.56682 5.38697C5.56174 5.38189 5.55666 5.3763 5.55209 5.37021C5.54821 5.36546 5.54464 5.36033 5.54147 5.35577L5.53983 5.35343C5.31387 5.05635 5.17929 4.68615 5.17929 4.28498C5.17929 3.30994 5.97254 2.51724 6.94703 2.51724C7.05926 2.51724 7.15016 2.60814 7.15016 2.72037V4.08134H8.51165C8.62387 4.08134 8.71477 4.17224 8.71477 4.28446C8.71477 5.2595 7.92152 6.0522 6.94703 6.0522C6.38897 6.0522 5.89081 5.7922 5.56682 5.38697ZM6.94712 5.64595C7.62855 5.64595 8.19476 5.1422 8.29327 4.48763L7.0167 4.48815L6.01021 5.27119C6.25447 5.50325 6.58454 5.64595 6.94712 5.64595ZM6.74393 4.18496V2.93829C6.08936 3.03673 5.58561 3.603 5.58561 4.28449C5.58561 4.52621 5.64909 4.7532 5.7603 4.95023L6.74393 4.18496ZM9.93491 3.45166H11.0719C11.1841 3.45166 11.275 3.36076 11.275 3.24853C11.275 3.13631 11.1841 3.04541 11.0719 3.04541H9.93491C9.82268 3.04541 9.73178 3.13631 9.73178 3.24853C9.73178 3.36076 9.82268 3.45166 9.93491 3.45166ZM11.0719 4.28458H9.93491C9.82268 4.28458 9.73178 4.19368 9.73178 4.08145C9.73178 3.96922 9.82268 3.87833 9.93491 3.87833H11.0719C11.1841 3.87833 11.275 3.96922 11.275 4.08145C11.275 4.19368 11.1841 4.28458 11.0719 4.28458ZM9.93491 5.11737H11.0719C11.1841 5.11737 11.275 5.02647 11.275 4.91425C11.275 4.80202 11.1841 4.71112 11.0719 4.71112H9.93491C9.82268 4.71112 9.73178 4.80202 9.73178 4.91425C9.73178 5.02647 9.82268 5.11737 9.93491 5.11737ZM11.0719 7.66406H9.93491C9.82268 7.66406 9.73178 7.57316 9.73178 7.46094C9.73178 7.34871 9.82268 7.25781 9.93491 7.25781H11.0719C11.1841 7.25781 11.275 7.34871 11.275 7.46094C11.275 7.57316 11.1841 7.66406 11.0719 7.66406ZM9.93491 8.49683H11.0719C11.1841 8.49683 11.275 8.40593 11.275 8.2937C11.275 8.18147 11.1841 8.09058 11.0719 8.09058H9.93491C9.82268 8.09058 9.73178 8.18147 9.73178 8.2937C9.73178 8.40593 9.82268 8.49683 9.93491 8.49683ZM11.0719 9.32962H9.93491C9.82268 9.32962 9.73178 9.23872 9.73178 9.1265C9.73178 9.01427 9.82268 8.92337 9.93491 8.92337H11.0719C11.1841 8.92337 11.275 9.01427 11.275 9.1265C11.275 9.23872 11.1841 9.32962 11.0719 9.32962Z" fill="#003775"/>
</svg>
