<svg width="64" height="64" viewBox="0 0 64 64" fill="none" xmlns="http://www.w3.org/2000/svg">
<g clip-path="url(#clip0_1_35153)">
<path d="M26.5944 0C27.6656 0.116667 28.7534 0.183333 29.8246 0.35C35.13 1.18333 39.5484 3.65 43.1467 7.6C43.2304 7.7 43.3141 7.78333 43.3978 7.88333C43.4313 7.91667 43.4647 7.93333 43.5484 7.98333C43.9501 7.28333 44.3685 6.6 44.7367 5.86667C45.038 5.28333 45.4564 5.03333 46.1258 5.03333C50.3099 5.05 54.494 5.03333 58.6781 5.05C58.9124 5.05 59.2137 5.01667 59.3476 5.13333C59.6154 5.38333 59.8999 5.71667 59.9501 6.03333C60.017 6.48333 59.6823 6.8 59.197 6.88333C58.9794 6.91667 58.7451 6.91667 58.5108 6.91667C54.6446 6.91667 50.7785 6.91667 46.8957 6.91667C46.4773 6.91667 46.2095 7.01667 46.0087 7.41667C45.7074 8.05 45.3057 8.65 44.9877 9.28333C44.8873 9.48333 44.8873 9.81667 44.9877 9.98333C48.1509 14.8 49.3559 20.05 48.5526 25.75C48.5359 25.8333 48.5526 25.9167 48.5526 26.0167C50.2262 26.5833 50.7283 27.8 50.7116 29.4667C50.6781 36.8833 50.6949 44.3 50.6949 51.7167C50.6949 52.7333 50.4103 53.1667 49.7409 53.15C49.1049 53.1333 48.8204 52.7 48.8204 51.7167C48.8204 44.2333 48.8204 36.7667 48.8204 29.2833C48.8204 28.0667 48.5861 27.8333 47.3476 27.8333C45.5233 27.8333 43.7158 27.8333 41.8915 27.8333C40.971 27.8333 40.653 28.1667 40.653 29.0833C40.653 39.9167 40.653 50.75 40.653 61.5833C40.653 61.7 40.6698 61.8333 40.6698 62.0167C43.3643 62.0167 46.0421 62.0167 48.7869 62.0167C48.8036 61.8 48.8204 61.5833 48.8204 61.3667C48.8204 59.7167 48.8204 58.0833 48.8204 56.4333C48.8204 56.2333 48.8204 56.0167 48.8539 55.8167C48.9543 55.3333 49.289 55.0333 49.7911 55.0667C50.3099 55.0833 50.6781 55.3833 50.6781 55.9333C50.6949 58.3333 50.6949 60.7167 50.6781 63.1167C50.6781 63.6833 50.2262 63.85 49.7911 64.0333C46.4103 64.0333 43.0129 64.0333 39.6154 64.0333C38.9626 63.7833 38.7451 63.3167 38.7451 62.6333C38.7618 55.7333 38.7618 48.85 38.7618 41.95C38.7618 41.7333 38.7618 41.5 38.7618 41.2C38.4773 41.3667 38.2765 41.4667 38.0924 41.5833C34.6112 43.7167 30.8288 44.8 26.7451 44.9C25.6572 44.9333 25.3559 44.6333 25.3559 43.55C25.3559 37.1333 25.3559 30.7167 25.3559 24.3C25.3559 24.0333 25.3559 23.7667 25.3559 23.4333C25.038 23.4333 24.8036 23.4333 24.5526 23.4333C18.0923 23.4333 11.6321 23.4333 5.15511 23.4333C4.05051 23.4333 3.79946 23.1833 3.8162 22.0667C3.89988 17.1333 5.48984 12.7333 8.48565 8.81667C8.93754 8.23333 9.4731 8.1 9.92498 8.43333C10.4271 8.8 10.4605 9.33333 9.97519 9.96667C7.51494 13.15 6.10908 16.75 5.74088 20.75C5.72415 20.9 5.72415 21.0333 5.70741 21.1833C5.70741 21.2833 5.70741 21.3833 5.70741 21.5833C5.97519 21.5833 6.2095 21.5833 6.46055 21.5833C12.9041 21.5833 19.3476 21.5833 25.7911 21.5833C26.9626 21.5833 27.2304 21.8333 27.2304 23.0167C27.2304 29.4167 27.2304 35.8 27.2304 42.2C27.2304 42.45 27.2304 42.7 27.2304 43.0833C28.3183 42.9333 29.3559 42.85 30.3601 42.6667C33.2221 42.1 35.8497 40.95 38.243 39.2833C38.6112 39.0333 38.7618 38.7667 38.7618 38.3167C38.7451 35.3 38.7451 32.2833 38.7451 29.25C38.7451 27.1667 39.8664 26.05 41.9585 26.05C43.4815 26.05 45.0045 26.05 46.5944 26.05C47.4313 20.85 46.4773 16.0667 43.699 11.5667C42.5944 13.5167 41.54 15.3833 40.4857 17.25C40.3852 17.4333 40.2848 17.6167 40.1509 17.7667C39.8329 18.1 39.4313 18.2 39.0129 17.95C38.5944 17.7167 38.4438 17.3333 38.5777 16.8833C38.6279 16.6833 38.7451 16.5 38.8455 16.3167C40.0505 14.1667 41.2555 12.0333 42.4773 9.86667C41.0212 7.98333 39.2639 6.41667 37.2388 5.16667C29.54 0.3 19.9501 1 12.9543 6.86667C12.8706 6.93333 12.7869 7 12.72 7.06667C12.1844 7.48333 11.6488 7.46667 11.2806 7.01667C10.9292 6.58333 10.9794 6.03333 11.4982 5.65C12.9041 4.63333 14.2764 3.56667 15.7827 2.71667C18.7785 1.03333 22.0421 0.216667 25.4898 0.0833333C25.6907 0.0833333 25.9082 0.0333333 26.1091 0C26.2597 0 26.4271 0 26.5944 0Z" fill="#003876"/>
<path d="M-0.133789 26.1334C0.15073 25.6667 0.552403 25.4834 1.12144 25.4834C8.10052 25.5001 15.0963 25.4834 22.0754 25.5001C22.9959 25.5001 23.3139 25.8167 23.3139 26.7334C23.3139 33.6834 23.3139 40.6501 23.3139 47.6001C23.3139 48.5167 22.9624 48.9001 22.0587 48.8167C20.4185 48.6667 18.7783 48.4501 17.1549 48.2001C16.7365 48.1334 16.5859 48.2167 16.4185 48.5834C15.565 50.4667 14.6779 52.3167 13.8411 54.2001C13.5733 54.8001 13.2051 55.0501 12.5357 55.0501C9.15491 55.0334 5.75742 55.0501 2.37667 55.0334C1.59006 55.0334 1.15491 54.6667 1.15491 54.0834C1.17165 53.5001 1.62353 53.1501 2.41014 53.1501C5.48964 53.1501 8.5524 53.1334 11.6319 53.1667C12.1005 53.1667 12.3181 53.0167 12.5189 52.6001C13.2553 50.9334 14.0419 49.2667 14.8453 47.5667C14.4101 47.3834 13.9917 47.2167 13.5733 47.0334C5.65701 43.3834 1.1047 37.2667 0.0168386 28.6167C0.000102162 28.4501 -0.0501071 28.3001 -0.100316 28.1334C-0.133789 27.4667 -0.133789 26.8001 -0.133789 26.1334ZM15.6319 45.7667C16.0168 44.9501 16.4018 44.1167 16.7867 43.3001C17.088 42.6501 17.6068 42.4167 18.1256 42.6667C18.6277 42.9001 18.7783 43.4334 18.4938 44.0501C18.1591 44.8167 17.8076 45.5667 17.406 46.4167C18.7616 46.6001 20.0503 46.7834 21.3892 46.9834C21.3892 40.3667 21.3892 33.9001 21.3892 27.4167C14.8453 27.4167 8.31809 27.4167 1.80763 27.4167C2.02521 35.8001 8.13399 43.4334 15.6319 45.7667Z" fill="#003876"/>
<path d="M53.0883 64.0001C52.4021 63.8001 52.1846 63.3334 52.1846 62.6334C52.2013 56.1667 52.2013 49.6834 52.2013 43.2167C52.2013 41.3167 53.3729 40.1334 55.2808 40.1334C57.0214 40.1334 58.7452 40.2001 60.4858 40.1167C62.2599 40.0334 63.5151 40.6501 64.1344 42.3667C64.1344 49.5667 64.1344 56.7834 64.1344 64.0001C60.4524 64.0001 56.7703 64.0001 53.0883 64.0001ZM62.2097 62.0334C62.2264 61.9001 62.2431 61.8167 62.2431 61.7501C62.2431 55.5501 62.2431 49.3334 62.2431 43.1334C62.2431 42.3667 61.8749 42.0167 61.0549 42.0167C59.1971 42.0167 57.3394 42.0167 55.4649 42.0167C54.3436 42.0167 54.059 42.2834 54.059 43.4167C54.059 49.4001 54.059 55.3667 54.059 61.3501C54.059 61.5667 54.059 61.8001 54.059 62.0501C56.8206 62.0334 59.4816 62.0334 62.2097 62.0334Z" fill="#003876"/>
<path d="M26.3435 64C25.6071 63.8167 25.4062 63.3167 25.4062 62.6C25.4397 59.6 25.4062 56.6 25.423 53.6C25.423 51.5833 26.5443 50.4667 28.5527 50.45C30.4272 50.4333 32.3184 50.4333 34.1929 50.45C36.2347 50.4667 37.356 51.6167 37.356 53.65C37.356 56.6333 37.3393 59.6 37.3728 62.5833C37.3728 63.2667 37.1719 63.75 36.5192 64C33.1217 64 29.741 64 26.3435 64ZM27.3142 62.0333C30.059 62.0333 32.7535 62.0333 35.4648 62.0333C35.4816 61.8167 35.4983 61.6333 35.4983 61.45C35.4983 58.85 35.4983 56.25 35.4983 53.65C35.4983 52.65 35.1803 52.3333 34.1929 52.3333C32.3519 52.3333 30.5109 52.3333 28.6866 52.3333C27.5987 52.3333 27.3309 52.6167 27.3309 53.7167C27.3309 56.2833 27.3309 58.8333 27.3309 61.4C27.3142 61.5833 27.3142 61.7833 27.3142 62.0333Z" fill="#003876"/>
<path d="M6.04191 49.1162C7.24693 49.1162 8.46869 49.1162 9.67371 49.1162C10.4101 49.1162 10.8285 49.4662 10.8285 50.0495C10.8285 50.6329 10.4101 50.9829 9.67371 50.9829C7.21346 50.9829 4.73647 50.9829 2.27622 50.9829C1.57329 50.9829 1.12141 50.5829 1.13814 50.0162C1.15488 49.4662 1.57329 49.1162 2.27622 49.1162C3.53145 49.1162 4.78668 49.1162 6.04191 49.1162Z" fill="#003876"/>
<path d="M54.4105 3.18379C52.921 3.18379 51.4314 3.20046 49.9586 3.18379C49.2557 3.18379 48.7871 2.75046 48.854 2.20046C48.921 1.65046 49.2724 1.33379 49.8247 1.33379C52.8707 1.31712 55.9335 1.31712 58.9795 1.33379C59.6155 1.33379 60.0005 1.75046 59.9837 2.30046C59.967 2.81712 59.582 3.18379 58.9795 3.20046C57.4565 3.18379 55.9335 3.18379 54.4105 3.18379Z" fill="#003876"/>
<path d="M57.9245 21.1162C58.9956 21.1162 60.05 21.1162 61.1211 21.1162C61.8073 21.1162 62.2257 21.4662 62.2425 22.0162C62.2592 22.5995 61.8241 22.9829 61.1211 22.9829C58.9621 22.9829 56.8199 22.9829 54.6609 22.9829C53.9412 22.9829 53.5228 22.5995 53.5395 22.0162C53.5563 21.4495 53.958 21.1162 54.6609 21.1162C55.7488 21.1162 56.8366 21.1162 57.9245 21.1162Z" fill="#003876"/>
<path d="M57.8575 27.0169C56.7864 27.0169 55.732 27.0169 54.6609 27.0169C53.9412 27.0169 53.5563 26.7003 53.5395 26.1169C53.5228 25.5336 53.9412 25.1503 54.6609 25.1336C56.8031 25.1169 58.9621 25.1169 61.1044 25.1336C61.8241 25.1336 62.2592 25.5169 62.2425 26.1003C62.2257 26.6503 61.8073 27.0003 61.1211 27.0003C60.0333 27.0336 58.9454 27.0169 57.8575 27.0169Z" fill="#003876"/>
<path d="M57.8576 31.0835C56.7697 31.0835 55.6819 31.1001 54.594 31.0835C53.8074 31.0668 53.322 30.5001 53.5898 29.8835C53.7237 29.6001 54.1588 29.2501 54.4601 29.2501C56.7362 29.2001 59.0124 29.2168 61.2885 29.2335C61.8743 29.2335 62.2593 29.6668 62.2425 30.1835C62.2258 30.7001 61.8408 31.0835 61.2383 31.1001C60.117 31.1001 58.9957 31.0835 57.8576 31.0835Z" fill="#003876"/>
</g>
<defs>
<clipPath id="clip0_1_35153">
<rect width="64" height="64" fill="white"/>
</clipPath>
</defs>
</svg>
