<svg width="16" height="16" viewBox="0 0 16 16" fill="none" xmlns="http://www.w3.org/2000/svg">
<path fill-rule="evenodd" clip-rule="evenodd" d="M4.72949 6.60533L7.68578 8.21065V11.3096L4.72949 9.70717V6.60533ZM9.14592 5.23913L6.1667 6.86772L4.93252 6.19751L7.91319 4.58274L9.14592 5.23913ZM8.14059 11.3034V8.21065L11.0969 6.60533V9.70717L8.14059 11.3034ZM7.91317 7.81665L6.6426 7.12679L9.62182 5.50911L10.8938 6.19897L7.91317 7.81665ZM11.5517 9.97096V6.02899L7.91317 4.05837L4.27466 6.02899V9.97096L7.91317 11.9416L11.5517 9.97096ZM11.8482 12.6122C11.8482 12.7384 11.7464 12.8396 11.6208 12.8396H4.20553C4.08001 12.8396 3.97849 12.7384 3.97849 12.6122C3.97849 12.4859 4.08001 12.3851 4.20553 12.3851H11.6208C11.7467 12.3851 11.8482 12.4859 11.8482 12.6122ZM14.3715 15.2152C14.3715 15.3971 14.2242 15.5456 14.0415 15.5456H1.7852C1.60254 15.5456 1.45446 15.3971 1.45446 15.2152V0.784833C1.45446 0.602907 1.60254 0.454456 1.7852 0.454456H4.33361V1.25275H2.57221C2.44704 1.25275 2.3448 1.35462 2.3448 1.48052V14.3681C2.3448 14.4944 2.44704 14.5955 2.57221 14.5955H13.2549C13.38 14.5955 13.4819 14.4944 13.4819 14.3681V1.48052C13.4819 1.35462 13.38 1.25275 13.2549 1.25275H11.4935V0.454456H14.0415C14.2242 0.454456 14.3715 0.602907 14.3715 0.784833V15.2152ZM4.7884 1.25275H11.0386V0.454456H4.7884V1.25275ZM11.0386 2.00409C11.0386 2.31955 10.7821 2.57607 10.4674 2.57607H5.35929C5.04455 2.57607 4.7884 2.31955 4.7884 2.00409V1.70719H11.0386V2.00409ZM5.3593 3.03052H10.4674C11.0332 3.03052 11.4935 2.57061 11.4935 2.00409V1.70719H13.0271V14.14H2.79924V1.70719H4.3336V2.00409C4.3336 2.57061 4.79388 3.03052 5.3593 3.03052ZM14.0415 0H1.78519C1.35221 0 1 0.351844 1 0.784827V15.2152C1 15.6478 1.35221 16 1.78519 16H14.0415C14.4745 16 14.8264 15.6478 14.8264 15.2152V0.784827C14.8264 0.351844 14.4745 0 14.0415 0Z" fill="#003876"/>
</svg>
