<svg width="61" height="32" viewBox="0 0 61 32" fill="none" xmlns="http://www.w3.org/2000/svg">
<path fill-rule="evenodd" clip-rule="evenodd" d="M19.3153 6.88711V5.04413C19.3153 2.25834 17.057 0 14.2712 0H10.2728C7.48701 0 5.22867 2.25834 5.22867 5.04413V9.96524C5.22867 11.7065 6.11101 13.2417 7.45298 14.1482H2.70661C1.21179 14.1482 0 15.36 0 16.8548V27.9273H18.6182V32H42.9161V27.9273H60.9525V16.8548C60.9525 15.36 59.7407 14.1482 58.2459 14.1482H53.7456C55.0875 13.2417 55.9699 11.7065 55.9699 9.96524V7.50471L56.0215 6.89174C56.0042 6.89028 55.987 6.88874 55.9699 6.88711V5.04413C55.9699 2.25834 53.7115 0 50.9257 0H46.9274C44.1416 0 41.8832 2.25834 41.8832 5.04413V9.96524C41.8832 11.7065 42.7656 13.2417 44.1075 14.1482H39.3612C38.8253 14.1482 38.3259 14.3039 37.9055 14.5725C37.924 14.3969 37.9335 14.2185 37.9335 14.038V11.5774L37.9852 10.9645C37.9679 10.963 37.9507 10.9615 37.9335 10.9598V9.11686C37.9335 6.33106 35.6752 4.07273 32.8894 4.07273H28.891C26.1052 4.07273 23.8469 6.33106 23.8469 9.11686V14.038C23.8469 15.7793 24.7292 17.3145 26.0712 18.2209H24.298V16.8548C24.298 15.36 23.0862 14.1482 21.5914 14.1482H17.091C18.433 13.2417 19.3153 11.7065 19.3153 9.96524V7.50471L19.367 6.89174C19.3497 6.89028 19.3325 6.88874 19.3153 6.88711ZM23.0677 18.2209V16.8548C23.0677 16.0394 22.4067 15.3785 21.5914 15.3785H15.8151L15.0099 18.018L15.7875 24.6971L12.7194 26.697H18.6182V20.9275C18.6182 19.4327 19.83 18.2209 21.3248 18.2209H23.0677ZM14.2712 1.23028H10.2728C8.16647 1.23028 6.45895 2.9378 6.45895 5.04413V5.95588H10.8633C11.6714 5.95588 13.6921 5.56198 15.0411 4.02346L15.8653 3.08356L16.1072 4.30999C16.2215 4.88974 16.7674 6.02712 18.0851 6.58525V5.04413C18.0851 2.9378 16.3775 1.23028 14.2712 1.23028ZM18.0851 7.89491C16.5914 7.43815 15.7067 6.42377 15.2523 5.52976C13.6779 6.84083 11.7558 7.18615 10.8633 7.18615H6.45895V9.96524C6.45895 12.0716 8.16647 13.7791 10.2728 13.7791H14.2712C16.3775 13.7791 18.0851 12.0716 18.0851 9.96524V7.89491ZM10.1645 15.3785H14.5289L13.8533 17.593H10.9077L10.1645 15.3785ZM13.8793 18.9463H10.8986L10.2524 24.1002L12.2674 25.5231L14.4773 24.0825L13.8793 18.9463ZM8.86681 15.3785L9.76899 18.0668L8.93989 24.6794L11.7969 26.697H5.84381V21.0992H4.61354V26.697H1.23028V16.8548C1.23028 16.0394 1.89125 15.3785 2.70661 15.3785H8.86681ZM48.4515 26.697H42.9161V20.9275C42.9161 19.4327 41.7043 18.2209 40.2095 18.2209H37.8848V16.8548C37.8848 16.0394 38.5458 15.3785 39.3612 15.3785H45.5214L46.4235 18.0668L45.5944 24.6794L48.4515 26.697ZM36.6545 17.3947V18.2209H35.7092C36.0578 17.9854 36.3754 17.7076 36.6545 17.3947ZM46.9274 1.23028H50.9257C53.0321 1.23028 54.7396 2.9378 54.7396 5.04413V6.58525C53.4219 6.02712 52.876 4.88974 52.7617 4.30999L52.5198 3.08356L51.6957 4.02346C50.3466 5.56198 48.326 5.95588 47.5179 5.95588H43.1135V5.04413C43.1135 2.9378 44.821 1.23028 46.9274 1.23028ZM51.9068 5.52976C52.3612 6.42377 53.2459 7.43815 54.7396 7.89491V9.96524C54.7396 12.0716 53.0321 13.7791 50.9257 13.7791H46.9274C44.821 13.7791 43.1135 12.0716 43.1135 9.96524V7.18615H47.5179C48.4104 7.18615 50.3324 6.84083 51.9068 5.52976ZM51.1834 15.3785H46.8191L47.5622 17.593H50.5078L51.1834 15.3785ZM47.5532 18.9463H50.5339L51.1319 24.0825L48.9219 25.5231L46.907 24.1002L47.5532 18.9463ZM49.374 26.697L52.442 24.6971L51.6644 18.018L52.4697 15.3785H58.2459C59.0613 15.3785 59.7222 16.0394 59.7222 16.8548V26.697H56.6465V21.0992H55.4163V26.697H49.374ZM32.8894 5.303H28.891C26.7847 5.303 25.0771 7.01053 25.0771 9.11686V10.0286H29.4815C30.2896 10.0286 32.3103 9.63471 33.6593 8.09619L34.4835 7.15629L34.7253 8.38272C34.8397 8.96246 35.3856 10.0998 36.7032 10.658V9.11686C36.7032 7.01053 34.9957 5.303 32.8894 5.303ZM36.7032 11.9676C35.2096 11.5109 34.3248 10.4965 33.8705 9.60249C32.2961 10.9136 30.374 11.2589 29.4815 11.2589H25.0771V14.038C25.0771 16.1443 26.7847 17.8518 28.891 17.8518H32.8894C34.9957 17.8518 36.7032 16.1443 36.7032 14.038V11.9676ZM28.7827 19.4512H33.1471L32.4715 21.6657H29.5259L28.7827 19.4512ZM32.4975 23.019H29.5168L28.8706 28.1729L30.8856 29.5958L33.0955 28.1553L32.4975 23.019ZM27.485 19.4512L28.3872 22.1395L27.5581 28.7521L30.4151 30.7697H24.462V25.172H23.2317V30.7697H19.8485V20.9275C19.8485 20.1122 20.5094 19.4512 21.3248 19.4512H27.485ZM34.4056 28.7698L31.3376 30.7697H37.3799V25.172H38.6102V30.7697H41.6859V20.9275C41.6859 20.1122 41.0249 19.4512 40.2095 19.4512H34.4333L33.628 22.0908L34.4056 28.7698Z" fill="#058ED9"/>
</svg>
