<svg width="36" height="32" viewBox="0 0 36 32" fill="none" xmlns="http://www.w3.org/2000/svg">
<path fill-rule="evenodd" clip-rule="evenodd" d="M17.8084 0C15.9998 0 14.4853 1.25902 14.0936 2.9484H7.41456L7.39066 2.89097L7.36677 2.9484H7.27273V3.17443L2.42077 14.8361C1.05989 14.9817 0 16.1337 0 17.5332C0 19.0313 1.21444 20.2457 2.71253 20.2457H11.9115C13.4096 20.2457 14.6241 19.0313 14.6241 17.5332C14.6241 16.1914 13.6499 15.0772 12.3702 14.8592L8.03609 4.44226H14.0467C14.3466 6.24898 15.9166 7.62654 17.8084 7.62654L17.8084 25.8673H9.35627C7.66277 25.8673 6.28993 27.2402 6.28993 28.9337C6.28993 30.6272 7.66277 32 9.35627 32H26.1818C27.8753 32 29.2482 30.6272 29.2482 28.9337C29.2482 27.2402 27.8753 25.8673 26.1818 25.8673H19.3022V7.32281C20.4804 6.82068 21.3542 5.74263 21.57 4.44226H27.502L23.1775 14.8361C21.8166 14.9817 20.7568 16.1337 20.7568 17.5332C20.7568 19.0313 21.9712 20.2457 23.4693 20.2457H32.6683C34.1664 20.2457 35.3808 19.0313 35.3808 17.5332C35.3808 16.1914 34.4066 15.0772 33.1269 14.8592L28.1474 2.89097L28.1081 2.98546V2.9484H21.5231C21.1314 1.25902 19.6169 0 17.8084 0ZM15.4889 3.81327C15.4889 2.53229 16.5274 1.49386 17.8084 1.49386C19.0893 1.49386 20.1278 2.53229 20.1278 3.81327C20.1278 5.09424 19.0893 6.13268 17.8084 6.13268C16.5274 6.13268 15.4889 5.09424 15.4889 3.81327ZM2.40422 16.3538H12.2199C12.7436 16.4904 13.1302 16.9666 13.1302 17.5332C13.1302 18.2062 12.5846 18.7518 11.9115 18.7518H2.71253C2.03948 18.7518 1.49386 18.2062 1.49386 17.5332C1.49386 16.9666 1.88045 16.4904 2.40422 16.3538ZM4.04522 14.8206L7.39066 6.77984L10.7361 14.8206H4.04522ZM32.9766 16.3538H23.161C22.6372 16.4904 22.2506 16.9666 22.2506 17.5332C22.2506 18.2062 22.7962 18.7518 23.4693 18.7518H32.6683C33.3414 18.7518 33.887 18.2062 33.887 17.5332C33.887 16.9666 33.5004 16.4904 32.9766 16.3538ZM28.1474 6.77984L31.4929 14.8206H24.802L28.1474 6.77984ZM7.78378 28.9337C7.78378 28.0652 8.48781 27.3612 9.35627 27.3612H26.1818C27.0503 27.3612 27.7543 28.0652 27.7543 28.9337C27.7543 29.8021 27.0503 30.5061 26.1818 30.5061H9.35627C8.48781 30.5061 7.78378 29.8021 7.78378 28.9337Z" fill="#058ED9"/>
</svg>
