<svg width="32" height="32" viewBox="0 0 32 32" fill="none" xmlns="http://www.w3.org/2000/svg">
<path fill-rule="evenodd" clip-rule="evenodd" d="M18.2846 9.422V11.4318C18.2846 12.3446 19.0232 13.0845 19.9343 13.0845H21.7572C21.9856 14.7221 23.2829 15.9769 24.8492 15.9769C26.4154 15.9769 27.7128 14.7221 27.9411 13.0845H29.6953C30.6064 13.0845 31.345 12.3446 31.345 11.4318V1.65279C31.345 0.739977 30.6064 4.99698e-07 29.6953 4.99698e-07L19.9343 0C19.0232 -3.99001e-08 18.2846 0.739977 18.2846 1.65278V3.52481C18.3751 3.51644 18.4668 3.51217 18.5596 3.51217C18.6523 3.51217 18.744 3.51644 18.8345 3.52481C20.338 3.66376 21.5153 4.93084 21.5153 6.47341C21.5153 8.01597 20.338 9.28306 18.8345 9.422C18.744 9.43037 18.6523 9.43464 18.5596 9.43464C18.4668 9.43464 18.3751 9.43037 18.2846 9.422ZM26.7451 11.7072L26.5796 12.894C26.4323 13.9501 25.6344 14.5996 24.8492 14.5996C24.0639 14.5996 23.2661 13.9501 23.1188 12.894L22.9533 11.7072H19.9343C19.7825 11.7072 19.6594 11.5839 19.6594 11.4318V10.6708C21.5185 10.1832 22.8901 8.4888 22.8901 6.47341C22.8901 4.45802 21.5185 2.76359 19.6594 2.276V1.65278C19.6594 1.50065 19.7825 1.37732 19.9343 1.37732L29.6953 1.37732C29.8471 1.37732 29.9703 1.50065 29.9703 1.65279V11.4318C29.9703 11.5839 29.8471 11.7072 29.6953 11.7072H26.7451Z" fill="#058ED9"/>
<path fill-rule="evenodd" clip-rule="evenodd" d="M9.40464 13.0845C9.41299 12.9938 9.41726 12.902 9.41726 12.8091C9.41726 12.7162 9.41299 12.6243 9.40464 12.5336C9.26595 11.0273 8.0012 9.84784 6.46148 9.84784C4.92175 9.84784 3.65701 11.0273 3.51831 12.5336C3.50996 12.6243 3.50569 12.7162 3.50569 12.8091C3.50569 12.902 3.50996 12.9938 3.51831 13.0845H1.64974C0.738613 13.0845 0 12.3446 0 11.4318V1.65278C0 0.739977 0.738613 4.99698e-07 1.64974 4.99698e-07H11.4107C12.3218 4.99698e-07 13.0604 0.739977 13.0604 1.65279V3.41017C14.695 3.63896 15.9475 4.9387 15.9475 6.50784C15.9475 8.07698 14.695 9.37672 13.0604 9.60551V11.4318C13.0604 12.3446 12.3218 13.0845 11.4107 13.0845H9.40464ZM11.6856 4.60844V1.65279C11.6856 1.50065 11.5625 1.37732 11.4107 1.37732H1.64974C1.49788 1.37732 1.37478 1.50065 1.37478 1.65278V11.4318C1.37478 11.5839 1.49788 11.7072 1.64974 11.7072H2.27181C2.75849 9.84472 4.4498 8.47052 6.46148 8.47052C8.47315 8.47052 10.1645 9.84472 10.6511 11.7072H11.4107C11.5625 11.7072 11.6856 11.5839 11.6856 11.4318V8.40724L12.8702 8.24144C13.9243 8.09389 14.5727 7.29454 14.5727 6.50784C14.5727 5.72114 13.9243 4.92179 12.8702 4.77424L11.6856 4.60844Z" fill="#058ED9"/>
<path fill-rule="evenodd" clip-rule="evenodd" d="M31.594 18.1493C32.1876 18.9809 32.1713 20.2325 31.2714 21.0535L23.423 29.0882C20.6968 32.0487 17.6027 32.2252 16.2552 31.8627L7.33858 29.6124H4.26182V30.5765C4.26182 30.9568 3.95407 31.2652 3.57443 31.2652H0.893608C0.513973 31.2652 0.206217 30.9568 0.206217 30.5765V21.2107C0.206217 20.8304 0.513973 20.5221 0.893608 20.5221H3.57443C3.95407 20.5221 4.26182 20.8304 4.26182 21.2107V21.6928H6.79604C6.91548 21.0508 7.20478 20.6077 7.57584 20.3261C7.80608 20.1514 8.03703 20.0634 8.2125 20.019C8.30056 19.9967 8.37676 19.9849 8.43532 19.9785C8.46472 19.9753 8.49004 19.9735 8.51061 19.9725C8.52091 19.9719 8.53006 19.9716 8.53797 19.9714L8.53966 19.9714L8.54522 19.9713L8.54893 19.9712L8.55371 19.9712L8.55593 19.9712L8.55699 19.9712C8.5575 19.9712 8.55802 19.9712 8.55802 20.6535V19.9712H12.6136C13.0977 19.9712 13.4912 20.1516 13.7831 20.4301C14.0591 20.6935 14.2192 21.019 14.315 21.2932C14.3633 21.4315 14.399 21.5675 14.4253 21.6928H16.7036C17.1169 21.6928 17.7037 21.7873 18.2094 22.1291C18.5231 22.3412 18.7853 22.6359 18.9513 23.0165C21.8896 21.3471 26.4733 18.7594 28.3978 17.6827C29.0355 17.3259 29.6679 17.1998 30.2457 17.3012C30.8246 17.4027 31.2899 17.7233 31.594 18.1493ZM4.26182 23.0701H8.11121V22.3815C8.11121 21.6861 8.3303 21.4814 8.40601 21.424C8.45931 21.3835 8.51191 21.3638 8.5491 21.3544C8.56227 21.3511 8.5724 21.3493 8.57832 21.3485H12.6136C12.731 21.3485 12.7886 21.3832 12.835 21.4275C12.8974 21.487 12.9628 21.5919 13.0174 21.7481C13.0705 21.9001 13.0998 22.0618 13.115 22.1923C13.1224 22.2557 13.126 22.3076 13.1277 22.3419C13.1282 22.3519 13.1285 22.3602 13.1287 22.3668C13.1289 22.3715 13.129 22.3753 13.1291 22.3782L13.1291 22.3818L13.1292 22.3838V23.0701H16.7036C16.9433 23.0701 17.2329 23.1306 17.4405 23.2709C17.6084 23.3844 17.7691 23.5755 17.7691 23.9998C17.7691 24.0236 17.7687 24.0478 17.7681 24.0723C17.7575 24.475 17.6605 24.9068 17.4718 25.2137C17.303 25.4883 17.076 25.6526 16.7036 25.6526H13.4041C13.0245 25.6526 12.7167 25.9609 12.7167 26.3413C12.7167 26.7216 13.0245 27.0299 13.4041 27.0299H16.7036C17.6301 27.0299 18.2664 26.5476 18.6423 25.9361C18.9169 25.4895 19.0567 24.9748 19.113 24.5082C21.9983 22.8667 27.0298 20.0255 29.0681 18.8852C29.489 18.6497 29.8026 18.6217 30.0086 18.6579C30.2136 18.6938 30.3699 18.8023 30.4757 18.9505C30.6977 19.2615 30.6909 19.7268 30.3376 20.0426L30.3202 20.0581L22.4259 28.1397L22.4188 28.1474C20.0367 30.7391 17.4626 30.7634 16.6083 30.5316L16.6025 30.53L7.50907 28.2351H4.26182V23.0701ZM1.581 29.8879V21.8994H2.88704V29.8879H1.581Z" fill="#058ED9"/>
</svg>
