<svg width="24" height="24" viewBox="0 0 24 24" fill="none" xmlns="http://www.w3.org/2000/svg">
<path d="M12 24C5.3726 24 0 18.6275 0 12C0 5.37259 5.3726 0 12 0C18.6274 0 24.0001 5.37259 24.0001 12C24.0001 18.6275 18.6274 24 12 24ZM12 21.6C17.302 21.6 21.6001 17.302 21.6001 12C21.6001 6.69807 17.302 2.4 12 2.4C6.69807 2.4 2.4 6.69807 2.4 12C2.4 17.302 6.69807 21.6 12 21.6ZM7.80001 14.4H14.4C14.7314 14.4 15 14.1314 15 13.8C15 13.4687 14.7314 13.2 14.4 13.2H9.60004C7.94316 13.2 6.60001 11.8568 6.60001 10.2C6.60001 8.54316 7.94316 7.20001 9.60004 7.20001H10.8V4.80001H13.2V7.20001H16.2V9.59998H9.60004C9.26865 9.59998 9.00001 9.86866 9.00001 10.2C9.00001 10.5314 9.26865 10.8 9.60004 10.8H14.4C16.0569 10.8 17.4001 12.1431 17.4001 13.8C17.4001 15.4568 16.0569 16.8 14.4 16.8H13.2V19.2H10.8V16.8H7.80001V14.4Z" fill="#058ED9"/>
</svg>
