<svg width="52" height="32" viewBox="0 0 52 32" fill="none" xmlns="http://www.w3.org/2000/svg">
<path fill-rule="evenodd" clip-rule="evenodd" d="M7.60153 0L13.6992 2.40063L12.8722 4.20117H23.9272C25.5482 3.69508 27.2192 3.16497 27.5492 3.03304C28.0031 2.8516 28.6084 2.84186 29.0508 2.85773C29.5365 2.87515 30.0166 2.9342 30.319 2.98456L30.4116 2.99998L39.3575 6.65742H39.3832L38.5012 4.59497L43.6096 2.43503L51.2153 21.2139L46.3833 23.0248L45.5856 21.1597H43.8059L41.2593 22.7793C41.263 22.8625 41.2632 22.9505 41.2584 23.0432C41.2243 23.6992 40.9504 24.4245 40.2726 25.3277C39.7664 26.0022 39.0262 26.2744 38.4132 26.3721C38.1987 26.4062 37.9867 26.4214 37.7852 26.423C37.5821 27.0246 37.178 27.4771 36.9178 27.7372C36.3771 28.2775 35.7511 28.4849 35.1912 28.5133C35.0688 28.9943 34.8107 29.4337 34.4602 29.784C33.6791 30.5646 32.9438 30.9715 32.1687 30.9237C31.7979 30.9008 31.4933 30.7759 31.2587 30.6521C31.1179 30.5777 30.9453 30.469 30.8224 30.3916C30.7745 30.3615 30.7342 30.3361 30.7062 30.3193L30.6956 30.3129L29.5162 31.5899L29.4551 31.6357C28.9011 32.0509 28.1995 32.0431 27.6565 31.9426C27.0805 31.836 26.4795 31.5899 25.9428 31.2835L25.906 31.2624L24.6672 30.3781L24.3352 30.7445C23.2868 31.9018 21.4984 31.9904 20.3405 30.9427C19.8967 30.5411 19.6099 30.0308 19.484 29.4889C18.6451 29.6458 17.7451 29.4228 17.0636 28.8061C16.5445 28.3364 16.2402 27.7179 16.1569 27.0742C15.4153 27.1264 14.6544 26.888 14.0598 26.3499C13.48 25.8253 13.1682 25.1151 13.133 24.3914C12.4313 24.41 11.7217 24.1691 11.1603 23.6611C10.1633 22.7589 9.95871 21.3083 10.5901 20.1836L7.7775 18.0213H6.52464L5.3529 20.5725L0 18.4708L7.60153 0ZM7.29433 16.3455H8.3472L11.6625 18.8942L12.8807 17.5497C13.9292 16.3924 15.7176 16.3038 16.8754 17.3515C17.4552 17.8762 17.767 18.5864 17.8023 19.31C18.5039 19.2915 19.2136 19.5323 19.775 20.0403C20.2941 20.5101 20.5984 21.1285 20.6817 21.7722C21.4232 21.7201 22.1842 21.9584 22.7788 22.4965C23.1861 22.8651 23.4611 23.3252 23.601 23.8172L24.5922 22.6961L31.6357 28.9231C31.7039 28.9649 31.7573 28.9989 31.8043 29.0289C31.888 29.0823 31.9512 29.1227 32.0412 29.1702C32.1584 29.2321 32.2247 29.2482 32.2719 29.2511C32.3326 29.2549 32.6213 29.2525 33.2756 28.5987C33.5395 28.3348 33.6355 28.0056 33.578 27.7188C33.5457 27.5582 33.4598 27.3755 33.2756 27.1914C32.2617 26.1781 28.4526 22.7773 26.6351 21.2333L27.72 19.9562C29.5434 21.5051 33.3958 24.9423 34.4602 26.006C34.7143 26.26 34.9099 26.5425 35.0452 26.8428C35.2528 26.8422 35.5106 26.7744 35.7332 26.5519C35.9795 26.3057 36.1712 26.0424 36.2218 25.7977C36.2531 25.6467 36.2688 25.3549 35.7652 24.902C35.5118 24.674 34.6525 23.9125 33.5698 22.9529C31.9105 21.4824 29.7264 19.5467 28.3936 18.3535L29.5114 17.105C30.8243 18.2803 33.0235 20.2295 34.6924 21.7087C35.7779 22.6708 36.639 23.434 36.8859 23.656C37.2734 24.0046 37.5451 24.372 37.7109 24.747C37.8503 24.749 38.0003 24.7409 38.1496 24.7171C38.5219 24.6578 38.783 24.5207 38.9322 24.3219C39.4833 23.5876 39.5735 23.1759 39.5849 22.9563C39.591 22.8378 39.577 22.7297 39.5492 22.5926C39.5453 22.5735 39.5399 22.5489 39.5336 22.5201C39.5299 22.5031 39.5258 22.4846 39.5216 22.4649L27.5588 12.6349L27.0482 11.206L24.9384 11.6851L22.9952 13.1093L22.9573 13.1314C22.2955 13.5172 20.5998 14.148 18.8756 13.6178C18.376 13.4642 17.9717 13.1947 17.6974 12.8097C17.4272 12.4304 17.3326 12.0083 17.3249 11.6296C17.3103 10.9046 17.6084 10.2077 17.8573 9.79301L17.8764 9.76124L20.7031 5.87696H12.1025L7.29433 16.3455ZM22.3658 6.44004L19.277 10.6847C19.1237 10.9502 18.9947 11.3146 19.0004 11.5958C19.003 11.7254 19.033 11.7963 19.0623 11.8374C19.0875 11.8728 19.1577 11.9513 19.3681 12.016C20.4555 12.3504 21.6219 11.9557 22.079 11.7031L24.2282 10.128L28.1261 9.24264L28.9809 11.6344L40.6209 21.1993L43.3181 19.484H44.7522L40.0042 8.33321H39.0281L29.9541 4.62337C29.707 4.586 29.3467 4.54521 28.9907 4.53244C28.5457 4.51647 28.2635 4.55222 28.1712 4.5891C27.6117 4.8128 24.1992 5.87516 22.3658 6.44004ZM23.6687 24.1165C23.7063 24.3375 23.7177 24.5625 23.7024 24.7862C24.1352 24.8365 24.5596 24.9868 24.9385 25.239L23.6687 24.1165ZM25.5205 25.7536C26.3312 26.6959 26.4253 28.0613 25.7658 29.1034L26.8093 29.8483C27.2168 30.0767 27.6257 30.2327 27.9615 30.2948C28.2306 30.3446 28.3679 30.3206 28.422 30.3047L29.4318 29.2114L25.5205 25.7536ZM21.131 28.5278L22.9455 26.525C23.3414 26.3673 23.81 26.4359 24.1472 26.7411C24.6189 27.1679 24.655 27.8957 24.228 28.367L23.0933 29.6194C22.6661 30.091 21.9369 30.1272 21.4649 29.7001C21.128 29.3952 21.0133 28.9367 21.131 28.5278ZM21.8544 25.2087C22.1498 24.7441 22.0765 24.1211 21.6544 23.7391C21.272 23.3931 20.7208 23.3512 20.2981 23.5985C20.2057 23.751 20.0974 23.8969 19.9732 24.034L18.0545 26.1518C17.9957 26.2167 17.9346 26.2783 17.8713 26.3364C17.7266 26.7586 17.836 27.2449 18.188 27.5635C18.6206 27.955 19.2692 27.9572 19.7035 27.5918C19.8166 27.3636 19.9628 27.1471 20.1423 26.949L21.2769 25.6966C21.4511 25.5044 21.6457 25.3416 21.8544 25.2087ZM18.9673 22.51C19.112 22.0879 19.0026 21.6015 18.6506 21.2829C18.2341 20.906 17.6173 20.8899 17.1844 21.2154C17.149 21.2595 17.1121 21.3028 17.0737 21.3452L15.155 23.463C15.1008 23.5228 15.0447 23.5797 14.9868 23.6337C14.6884 24.0987 14.7609 24.7243 15.1842 25.1074C15.5666 25.4534 16.1178 25.4953 16.5405 25.2479C16.6329 25.0954 16.7412 24.9495 16.8654 24.8124L18.7841 22.6946C18.8429 22.6297 18.904 22.5682 18.9673 22.51ZM15.9485 20.0677C16.2468 19.6028 16.1744 18.9772 15.751 18.5941C15.279 18.167 14.5499 18.2032 14.1226 18.6748L12.2039 20.7926C11.7769 21.2639 11.813 21.9917 12.2847 22.4185C12.7012 22.7954 13.318 22.8115 13.7508 22.486C13.7862 22.442 13.8231 22.3987 13.8616 22.3563L15.7803 20.2385C15.8344 20.1787 15.8906 20.1218 15.9485 20.0677ZM47.2945 20.8937L49.0162 20.2485L42.6951 4.64113L40.7036 5.48316L47.2945 20.8937ZM8.52317 2.16383L2.19792 17.5335L4.4911 18.4338L11.437 3.31099L8.52317 2.16383Z" fill="#058ED9"/>
</svg>
