<svg width="24" height="24" viewBox="0 0 24 24" fill="none" xmlns="http://www.w3.org/2000/svg">
<g clip-path="url(#clip0_1_35375)">
<path fill-rule="evenodd" clip-rule="evenodd" d="M0.600098 12.0001C0.600098 5.71234 5.71234 0.600098 12.0001 0.600098C18.2879 0.600098 23.4001 5.71234 23.4001 12.0001C23.4001 18.2879 18.2879 23.4001 12.0001 23.4001C5.71234 23.4001 0.600098 18.2879 0.600098 12.0001ZM1.5601 12.0001C1.5601 17.7601 6.2401 22.4401 12.0001 22.4401C17.7601 22.4401 22.4401 17.7601 22.4401 12.0001C22.4401 6.2401 17.7601 1.5601 12.0001 1.5601C6.2401 1.5601 1.5601 6.2401 1.5601 12.0001ZM10.1278 7.10458L16.7523 11.2323C17.3279 11.5923 17.3279 12.4081 16.7523 12.7924L10.1278 16.9202C9.52785 17.3046 8.73566 16.8724 8.73566 16.1524V7.87239C8.73566 7.15239 9.52785 6.72019 10.1278 7.10458Z" fill="#ED232A"/>
</g>
<defs>
<clipPath id="clip0_1_35375">
<rect width="24" height="24" fill="white"/>
</clipPath>
</defs>
</svg>
