<svg width="48" height="48" viewBox="0 0 48 48" fill="none" xmlns="http://www.w3.org/2000/svg">
<path d="M11.6884 32.4809V36.0066H13.5326C14.8713 36.0066 15.5407 35.419 15.5407 34.2437C15.5407 33.0685 14.8713 32.4809 13.5326 32.4809H11.6884Z" fill="#CE1010"/>
<path d="M19.999 32.5074V39.5191H21.9525C23.0089 39.5191 23.8376 39.2187 24.4386 38.6178C25.0397 38.0169 25.3402 37.1465 25.3402 36.0066C25.3402 34.8667 25.0397 34.0007 24.4386 33.4087C23.8376 32.8078 23.0089 32.5074 21.9525 32.5074H19.999Z" fill="#CE1010"/>
<path fill-rule="evenodd" clip-rule="evenodd" d="M3.0293 3.80989C3.0293 1.70914 4.73255 0.00439453 6.83405 0.00439453H30.7935L44.97 15.2369V44.1906C44.97 46.2929 43.2653 47.9961 41.1645 47.9961H6.83405C4.73255 47.9961 3.0293 46.2929 3.0293 44.1906V3.80989ZM11.0328 31.5H13.5189C14.4569 31.5 15.2219 31.7209 15.8139 32.1627C16.4058 32.5957 16.7018 33.2894 16.7018 34.2437C16.7018 35.1892 16.4058 35.8873 15.8139 36.338C15.2219 36.7798 14.4569 37.0007 13.5189 37.0007H11.6884V39.9963C11.6884 40.3321 11.5109 40.5 11.1557 40.5H11.0328C10.6776 40.5 10.5 40.3321 10.5 39.9963V32.0169C10.5 31.6723 10.6776 31.5 11.0328 31.5ZM19.3433 31.5H22.0618C23.2821 31.5 24.3111 31.849 25.149 32.5471C25.5588 32.9006 25.8821 33.3733 26.1189 33.9654C26.3647 34.5574 26.4877 35.2379 26.4877 36.0066C26.4877 36.7754 26.3647 37.4558 26.1189 38.0479C25.8821 38.6311 25.5588 39.095 25.149 39.4396C24.3111 40.1465 23.2821 40.5 22.0618 40.5H19.3433C18.9973 40.5 18.8243 40.3365 18.8243 40.0096V32.0037C18.8243 31.6679 18.9973 31.5 19.3433 31.5ZM33.9809 31.5H29.2954C28.9403 31.5 28.7627 31.6679 28.7627 32.0037V39.9963C28.7627 40.3321 28.9403 40.5 29.2954 40.5H29.4184C29.7735 40.5 29.9511 40.3365 29.9511 40.0096V36.3247H33.4482C33.7851 36.3247 33.9536 36.1613 33.9536 35.8343C33.9536 35.4985 33.7851 35.3306 33.4482 35.3306H29.9511V32.4941H33.9809C34.327 32.4941 34.5 32.3306 34.5 32.0037C34.5 31.6679 34.327 31.5 33.9809 31.5Z" fill="#CE1010"/>
<path fill-rule="evenodd" clip-rule="evenodd" d="M44.9649 15.2639V16.0139H35.3641C35.3641 16.0139 30.6301 15.0689 30.7689 10.9836C30.7689 10.9836 30.9241 15.2639 35.2704 15.2639H44.9649Z" fill="#9C3434"/>
<path opacity="0.5" fill-rule="evenodd" clip-rule="evenodd" d="M30.7869 0V10.9208C30.7869 12.1628 31.6149 15.264 35.3649 15.264H44.9656L30.7869 0Z" fill="white"/>
</svg>
