<svg width="68" height="64" viewBox="0 0 68 64" fill="none" xmlns="http://www.w3.org/2000/svg">
<path d="M0.487181 5.82274C0.731549 5.22928 1.11555 4.72309 1.56938 4.28672C2.73885 3.1347 3.87341 1.96523 5.04288 0.813211C5.82835 0.0451999 6.77091 -0.199167 7.8182 0.167383C8.86549 0.516479 9.42404 1.30195 9.61604 2.38414C9.66841 2.69833 9.6335 2.99506 9.54622 3.29179C9.40659 3.76307 9.59859 3.88526 10.0175 3.85035C10.1921 3.83289 10.3666 3.85035 10.5411 3.85035C17.8722 3.85035 25.2032 3.8678 32.5342 3.83289C37.4914 3.81544 42.2216 4.72309 46.6028 7.07948C53.7418 10.9195 58.4371 16.7844 60.6539 24.5867C61.1077 26.1576 60.3222 27.5889 58.856 28.0252C57.3898 28.4442 55.9411 27.6587 55.5047 26.1052C54.3352 21.9335 52.2407 18.3204 49.0464 15.3705C45.2762 11.8796 40.8252 9.87225 35.6935 9.38352C24.0512 8.28387 13.491 16.4003 11.4313 27.8856C9.16222 40.5752 17.4533 51.9383 29.2527 54.2947C40.7554 56.5988 52.101 49.6517 55.3476 38.3934C55.4 38.2014 55.4524 38.0094 55.5222 37.8348C56.0284 36.3337 57.4073 35.5483 58.856 35.9672C60.2873 36.3686 61.0903 37.8174 60.6713 39.336C59.5368 43.56 57.5295 47.3128 54.6494 50.5943C53.3403 52.0954 51.8567 53.4045 50.2857 54.6264C50.4603 54.8009 50.6523 54.7311 50.8094 54.7311C53.1832 54.7311 55.5571 54.7311 57.9484 54.7486C58.4022 54.7486 58.5593 54.6613 58.4546 54.1551C58.1928 52.8983 58.7164 51.7812 59.7637 51.2227C60.8633 50.6292 62.0677 50.8038 63.0103 51.7289C64.267 52.9682 65.5063 54.2424 66.7631 55.4816C67.0947 55.8133 67.2867 56.2322 67.5311 56.6162C67.5311 57.1399 67.5311 57.6635 67.5311 58.1871C67.2867 58.7806 66.9202 59.2868 66.4489 59.7232C65.3667 60.7879 64.3019 61.8876 63.2023 62.9523C62.9579 63.1967 62.6961 63.441 62.3994 63.6156C61.4743 64.1392 60.5142 64.1392 59.6066 63.5458C58.7164 62.9698 58.28 62.097 58.3848 61.0323C58.472 60.1421 58.5069 60.1421 57.5818 60.1421C49.8668 60.1421 42.1343 60.1421 34.4193 60.1421C33.1102 60.1421 31.8011 60.0723 30.5094 59.9152C24.4526 59.2344 19.1464 56.8431 14.7478 52.6714C7.76583 46.0561 4.79852 37.8698 5.95053 28.3045C6.78836 21.3226 9.98259 15.5276 15.219 10.8497C15.8125 10.3261 16.4234 9.81989 17.1216 9.22643C14.643 9.22643 12.2866 9.22643 9.93023 9.22643C9.51131 9.22643 9.47641 9.40097 9.54622 9.75007C9.79059 11.129 9.2844 12.2112 8.18475 12.7872C7.05019 13.3632 5.91563 13.1538 4.90325 12.1588C3.87341 11.129 2.84358 10.0817 1.79629 9.05188C1.27265 8.54569 0.801368 8.02204 0.469727 7.35876C0.487181 6.87003 0.487181 6.34638 0.487181 5.82274Z" fill="#003876"/>
<path d="M34.1047 23.9232C33.5287 23.9581 32.9177 24.0453 32.3243 24.2024C31.4515 24.4468 30.8581 25.1799 30.8057 26.1225C30.7533 26.9778 31.2595 27.5014 31.9926 27.833C33.5985 28.5661 35.2741 29.1247 36.9324 29.7356C39.3935 30.6433 41.3135 32.1967 42.4132 34.588C44.4728 39.0565 42.2735 43.7867 37.4909 45.218C36.8102 45.4275 36.3389 45.6369 36.0072 46.37C35.536 47.4173 34.5585 47.8362 33.4065 47.7141C32.2719 47.5919 31.4865 46.9635 31.1723 45.8813C31.0326 45.3926 30.7708 45.2355 30.3519 45.1133C28.4493 44.5373 26.7737 43.6122 25.4995 42.0587C24.522 40.8543 24.6093 39.2659 25.7089 38.2885C26.8435 37.2935 28.3795 37.3634 29.4791 38.463C31.3643 40.3656 33.6683 40.6623 36.1294 39.999C37.6829 39.5801 38.2065 38.1663 37.4734 36.735C36.9847 35.7575 36.1469 35.1815 35.1694 34.815C33.5985 34.2215 32.0275 33.6455 30.4566 33.0346C27.9955 32.0746 26.2151 30.4513 25.5867 27.7981C24.7664 24.2548 26.8086 20.4846 30.2646 19.2104C30.7533 19.0358 30.9977 18.8089 31.1024 18.2678C31.3119 17.1332 32.3766 16.278 33.5287 16.243C34.8029 16.1907 35.8851 16.8714 36.2167 18.0758C36.3738 18.6518 36.6705 18.8613 37.1942 19.0358C38.7651 19.5246 40.1266 20.3973 41.104 21.7413C41.9419 22.8933 41.7673 24.5341 40.72 25.4068C39.6204 26.3319 37.9622 26.2796 37.0022 25.1625C36.2342 24.2373 35.2392 23.9755 34.1047 23.9232Z" fill="#003876"/>
</svg>
