<svg width="16" height="16" viewBox="0 0 16 16" fill="none" xmlns="http://www.w3.org/2000/svg">
<path fill-rule="evenodd" clip-rule="evenodd" d="M2.35433 1.27068H12.6456C12.7178 1.27068 12.7863 1.29961 12.8371 1.35039C12.8879 1.40118 12.9168 1.46973 12.9168 1.54184V7.90625C12.9168 7.97786 12.8879 8.04692 12.8371 8.0977C12.7863 8.14849 12.7178 8.17692 12.6457 8.17692H9.19663L7.36441 9.22505C7.28062 9.2738 7.17754 9.2738 7.09375 9.22505L5.26153 8.17692H2.35434C2.28222 8.17692 2.21367 8.14848 2.16289 8.0977C2.11211 8.04691 2.08316 7.97785 2.08316 7.90625V1.54184C2.08316 1.39204 2.20453 1.27068 2.35433 1.27068ZM9.12499 7.63561H12.375V1.81252H2.62499V7.63561H5.33315C5.38089 7.6351 5.4276 7.64729 5.46874 7.67065L7.22933 8.67814L8.9894 7.67065C9.03104 7.64729 9.07776 7.6351 9.12499 7.63561ZM4.49933 6.83533C4.64305 6.83533 4.78067 6.77794 4.88222 6.67638C4.98378 6.57481 5.04067 6.4372 5.04067 6.29349C5.04067 6.20868 5.01934 6.12489 4.97973 6.04974L6.21473 4.34349C6.25891 4.35517 6.30461 4.36126 6.35032 4.36126C6.46813 4.36075 6.5829 4.32165 6.67684 4.25005L8.18809 5.36978C8.18098 5.40228 8.17743 5.43579 8.17692 5.4688C8.17692 5.76791 8.41966 6.01064 8.71876 6.01064C9.01786 6.01064 9.2606 5.76791 9.2606 5.4688C9.26009 5.43935 9.25704 5.4099 9.25095 5.38095C9.2733 5.36165 9.29259 5.33931 9.30783 5.31443L10.4331 3.39693C10.6769 3.37408 10.8744 3.19076 10.9161 2.94955C10.9577 2.70833 10.8323 2.46966 10.6103 2.36657C10.3884 2.26348 10.1254 2.32189 9.96797 2.50927C9.81055 2.69615 9.79785 2.9658 9.9375 3.16689L8.88937 4.95699C8.83453 4.9382 8.77664 4.92805 8.71875 4.92703C8.65984 4.92805 8.60093 4.9382 8.54559 4.95852L6.87691 3.72047C6.82206 3.44931 6.57171 3.26345 6.29648 3.28884C6.02125 3.31423 5.80898 3.54274 5.80441 3.8195C5.80542 3.8652 5.81202 3.9109 5.82472 3.95509L4.52069 5.75481H4.49377C4.19467 5.75481 3.95193 5.99703 3.95193 6.29614C3.95193 6.59524 4.19467 6.83798 4.49377 6.83798L4.49933 6.83533ZM11.0385 10.3951C10.813 10.2265 10.5119 10.1976 10.2585 10.321L8.56042 11.1132C8.55128 11.0807 8.54011 11.0492 8.5264 11.0182C8.42382 10.8222 8.24253 10.6785 8.02824 10.6226C7.99676 10.6175 7.96476 10.6175 7.93328 10.6226C7.04613 10.7201 6.9664 10.682 6.52356 10.4682C6.38797 10.4048 6.23258 10.3326 6.01981 10.2367C5.3429 9.95078 4.68471 10.1244 4.27144 10.3042L4.27195 9.93758C4.27195 9.86597 4.243 9.79692 4.19222 9.74612C4.14144 9.69534 4.07288 9.66691 4.00077 9.66691H1.54195C1.39215 9.66691 1.27078 9.78777 1.27078 9.93757V13.4582C1.27078 13.5303 1.29973 13.5989 1.35051 13.6497C1.40129 13.7005 1.46984 13.7294 1.54196 13.7294H4.00078C4.07289 13.7294 4.14144 13.7005 4.19223 13.6497C4.24301 13.5989 4.27196 13.5303 4.27196 13.4582V13.2891H6.99793C7.40671 13.2891 7.80941 13.1865 8.16894 12.991L10.9355 11.4828C11.1975 11.3452 11.3361 11.0501 11.2757 10.7607C11.2417 10.6149 11.1578 10.4855 11.0385 10.3951ZM3.73001 13.1875H1.81251V10.2082H3.73001V13.1875ZM10.6754 11.0074L7.90626 12.5105C7.62596 12.6623 7.31212 12.742 6.99373 12.742H4.27179V10.9017C4.52925 10.758 5.17925 10.4615 5.80735 10.7286C6.00895 10.8139 6.15672 10.8855 6.28824 10.9495C6.80265 11.1973 6.98547 11.2623 7.93209 11.1622V11.1617C7.97424 11.178 8.0103 11.2074 8.03467 11.2455C8.04686 11.2796 8.04686 11.3171 8.03467 11.3512C7.9062 11.4405 7.48776 11.698 6.59661 11.698C6.44732 11.698 6.32595 11.8189 6.32595 11.9687C6.32595 12.1185 6.44732 12.2393 6.59661 12.2393C7.5447 12.2393 8.06977 11.9818 8.30442 11.8209C8.32016 11.8178 8.3354 11.8133 8.35063 11.8077L10.4876 10.8108C10.5566 10.7748 10.6399 10.7788 10.7054 10.8215C10.7283 10.8362 10.744 10.8591 10.7501 10.8855C10.7532 10.9373 10.7231 10.9861 10.6754 11.0074Z" fill="#003775"/>
</svg>
