<svg width="32" height="32" viewBox="0 0 32 32" fill="none" xmlns="http://www.w3.org/2000/svg">
<path fill-rule="evenodd" clip-rule="evenodd" d="M4.55603 0.00292969C3.15503 0.00292969 2.01953 1.13943 2.01953 2.53993V29.4604C2.01953 30.8619 3.15503 31.9974 4.55603 31.9974H27.443C28.8435 31.9974 29.98 30.8619 29.98 29.4604V10.1579L20.529 0.00292969H4.55603Z" fill="#45B058"/>
<path d="M11.7144 26.969C11.6064 26.969 11.5069 26.924 11.4444 26.834L9.58038 24.349L7.70788 26.834C7.64488 26.924 7.54588 26.969 7.43788 26.969C7.23988 26.969 7.07788 26.816 7.07788 26.609C7.07788 26.537 7.09538 26.456 7.14988 26.393L9.09488 23.8275L7.28538 21.4145C7.24038 21.3515 7.21288 21.2795 7.21288 21.2075C7.21288 21.0365 7.35688 20.8475 7.57338 20.8475C7.68138 20.8475 7.78938 20.9015 7.86138 20.9915L9.58038 23.3055L11.2994 20.9825C11.3629 20.8925 11.4614 20.8475 11.5699 20.8475C11.7589 20.8475 11.9389 21.0005 11.9389 21.2075C11.9389 21.2795 11.9209 21.3515 11.8754 21.4145L10.0659 23.8185L12.0114 26.393C12.0564 26.456 12.0739 26.528 12.0739 26.6C12.0739 26.798 11.9119 26.969 11.7144 26.969ZM16.7089 26.906H13.9814C13.6839 26.906 13.4409 26.663 13.4409 26.366V21.2075C13.4409 21.0095 13.6029 20.8475 13.8279 20.8475C14.0259 20.8475 14.1884 21.0095 14.1884 21.2075V26.24H16.7089C16.8884 26.24 17.0329 26.384 17.0329 26.564C17.0329 26.762 16.8884 26.906 16.7089 26.906ZM20.1999 27.014C19.3089 27.014 18.6059 26.717 18.0934 26.2665C18.0124 26.1945 17.9764 26.0955 17.9764 25.9965C17.9764 25.8165 18.1114 25.6185 18.3274 25.6185C18.3994 25.6185 18.4804 25.6365 18.5439 25.6905C18.9579 26.0595 19.5339 26.3475 20.2274 26.3475C21.2989 26.3475 21.6404 25.7715 21.6404 25.312C21.6404 23.7635 18.0849 24.619 18.0849 22.476C18.0849 21.486 18.9669 20.8105 20.1464 20.8105C20.9204 20.8105 21.5869 21.0445 22.0729 21.4495C22.1539 21.5215 22.1994 21.6205 22.1994 21.7195C22.1994 21.8995 22.0459 22.0795 21.8479 22.0795C21.7754 22.0795 21.6944 22.0525 21.6319 21.9985C21.1904 21.6385 20.6419 21.4765 20.0924 21.4765C19.3724 21.4765 18.8589 21.8635 18.8589 22.431C18.8589 23.7815 22.4149 23.007 22.4149 25.249C22.4149 26.123 21.8209 27.014 20.1999 27.014Z" fill="white"/>
<path fill-rule="evenodd" clip-rule="evenodd" d="M29.9765 10.1758V10.6758H23.576C23.576 10.6758 20.42 10.0458 20.5125 7.32227C20.5125 7.32227 20.616 10.1758 23.5135 10.1758H29.9765Z" fill="#349C42"/>
<path opacity="0.5" fill-rule="evenodd" clip-rule="evenodd" d="M20.5244 0V7.2805C20.5244 8.1085 21.0764 10.176 23.5764 10.176H29.9769L20.5244 0Z" fill="white"/>
</svg>
