<svg width="16" height="16" viewBox="0 0 16 16" fill="currentColor" xmlns="http://www.w3.org/2000/svg">
<path d="M13.2825 7.64752C12.7469 7.11002 12.0244 6.80001 11.2657 6.78189C10.507 6.76376 9.77074 7.03939 9.21007 7.55064C8.64944 8.06189 8.30695 8.76939 8.25506 9.52632C8.20319 10.2832 8.44506 11.0313 8.93069 11.6145C9.41632 12.1976 10.1082 12.5707 10.8619 12.657C11.6156 12.7426 12.3738 12.5345 12.9782 12.0757L14.5176 13.6151L14.517 13.6145C14.6738 13.7701 14.9263 13.7701 15.0826 13.6139C15.2382 13.4582 15.2388 13.2051 15.0826 13.0489L13.5432 11.5095L13.5438 11.5101C13.9732 10.9426 14.1838 10.2395 14.1357 9.53011C14.0876 8.82011 13.7844 8.15133 13.2825 7.64752ZM9.68127 11.2482C9.06752 10.6344 8.88376 9.71128 9.21628 8.90944C9.54815 8.10757 10.3313 7.58445 11.1988 7.58445C12.067 7.58445 12.85 8.10757 13.182 8.90944C13.5145 9.71131 13.3308 10.6344 12.717 11.2482C11.8783 12.085 10.5201 12.085 9.68127 11.2482ZM0.799988 11.9819V4.0163C0.801238 3.05131 1.58311 2.26942 2.54815 2.26814H10.0337C10.9987 2.26939 11.7806 3.05126 11.7819 4.0163V4.69755C11.7819 4.91817 11.6025 5.09755 11.3819 5.09755C11.1607 5.09755 10.9819 4.91817 10.9819 4.69755V4.0163C10.9813 3.49318 10.5569 3.0688 10.0338 3.06817H2.54818C2.02506 3.0688 1.60068 3.49317 1.60005 4.0163V11.9819C1.60068 12.505 2.02504 12.9294 2.54818 12.93H7.44258C7.6632 12.93 7.84258 13.1088 7.84258 13.33C7.84258 13.5507 7.6632 13.73 7.44258 13.73H2.54818C1.58319 13.7288 0.801268 12.9469 0.799988 11.9819ZM3.22063 8.57694C3.32625 8.57632 3.42813 8.61882 3.50312 8.69382C3.57812 8.76882 3.62062 8.8707 3.62062 8.97694V10.7944C3.62062 11.015 3.44125 11.1944 3.22062 11.1944C2.99938 11.1944 2.82062 11.015 2.82062 10.7944V8.97694C2.82062 8.87069 2.8625 8.76881 2.9375 8.69382C3.0125 8.61883 3.11439 8.57632 3.22063 8.57694ZM5.07567 6.9219C5.18192 6.9219 5.2838 6.96378 5.35879 7.03878C5.43378 7.11378 5.47566 7.21566 5.47566 7.3219V10.7944C5.47566 11.015 5.29629 11.1944 5.07566 11.1944C4.85504 11.1944 4.67566 11.015 4.67566 10.7944V7.3219C4.67566 7.21565 4.71754 7.11377 4.79254 7.03878C4.86754 6.96379 4.96943 6.9219 5.07567 6.9219ZM6.93071 5.64754C7.03696 5.64754 7.13884 5.69003 7.21383 5.76504C7.28882 5.84004 7.3307 5.94192 7.3307 6.04753V10.7944C7.3307 11.015 7.15195 11.1944 6.9307 11.1944C6.71008 11.1944 6.5307 11.015 6.5307 10.7944V6.04753C6.5307 5.94191 6.5732 5.84003 6.6482 5.76504C6.72321 5.69004 6.82509 5.64754 6.93071 5.64754Z" fill="#003775"/>
</svg>
