<svg width="16" height="16" viewBox="0 0 16 16" fill="none" xmlns="http://www.w3.org/2000/svg">
<path d="M14.3554 4.23983C14.3655 4.38201 14.3655 4.52422 14.3655 4.6664C14.3655 9.0031 11.066 14 5.03555 14C3.17767 14 1.45179 13.4617 0 12.5274C0.26397 12.5578 0.517752 12.568 0.791878 12.568C2.32485 12.568 3.73605 12.05 4.86296 11.1664C3.42133 11.1359 2.2132 10.1914 1.79694 8.8914C2.00001 8.92185 2.20304 8.94217 2.41626 8.94217C2.71067 8.94217 3.00511 8.90153 3.2792 8.83047C1.77666 8.52576 0.649721 7.20546 0.649721 5.61093V5.57032C1.08625 5.81407 1.59391 5.96641 2.13195 5.9867C1.24869 5.39763 0.670034 4.39217 0.670034 3.25466C0.670034 2.6453 0.832441 2.08671 1.11672 1.5992C2.73095 3.58983 5.15736 4.88981 7.87816 5.03202C7.82741 4.78827 7.79694 4.53438 7.79694 4.28047C7.79694 2.47264 9.25888 1 11.0761 1C12.0203 1 12.8731 1.39609 13.4721 2.03594C14.2132 1.89376 14.9238 1.61952 15.5533 1.24375C15.3096 2.00549 14.7919 2.64533 14.1117 3.05155C14.7716 2.98049 15.4112 2.79764 16 2.54376C15.5534 3.19373 14.995 3.77262 14.3554 4.23983Z" fill="#1DA1F2"/>
</svg>
