<svg width="16" height="16" viewBox="0 0 16 16" fill="none" xmlns="http://www.w3.org/2000/svg">
<path d="M15.6657 4.56466C15.4817 3.94878 14.9395 3.46372 14.2511 3.29911C13.0033 3 8 3 8 3C8 3 2.99669 3 1.7489 3.29911C1.06052 3.46375 0.518349 3.94878 0.334336 4.56466C0 5.68099 0 8.0101 0 8.0101C0 8.0101 0 10.3392 0.334336 11.4555C0.518349 12.0714 1.06052 12.5363 1.7489 12.7009C2.99669 13 8 13 8 13C8 13 13.0033 13 14.2511 12.7009C14.9395 12.5363 15.4817 12.0714 15.6657 11.4555C16 10.3392 16 8.0101 16 8.0101C16 8.0101 16 5.68099 15.6657 4.56466ZM6.36363 10.1248V5.89544L10.5454 8.01016L6.36363 10.1248Z" fill="#FF0000"/>
</svg>
